<svg width="1269" height="782" viewBox="0 0 1269 782" fill="none" xmlns="http://www.w3.org/2000/svg">
<path d="M107.55 645.799V639.399C103.983 630.633 100.983 622.966 98.55 616.399L88.8 590.099C85.5 581.233 82.5 574.849 79.8 570.949C77.1333 567.049 73.9833 564.183 70.35 562.349C66.75 560.516 61.8833 559.599 55.75 559.599H39.85V613.399C39.85 623.799 40.7833 630.349 42.65 633.049C44.5167 635.749 48.6167 637.866 54.95 639.399V645.799H0V639.399C5.9 638.033 9.93333 636.166 12.1 633.799C14.2667 631.466 15.35 624.666 15.35 613.399V500.749C15.35 489.316 14.2333 482.416 12 480.049C9.73333 477.716 5.73333 475.849 0 474.449V468.099H54.95V474.449C49.1167 475.949 45.15 477.883 43.05 480.249C40.9167 482.649 39.85 489.483 39.85 500.749V548.399H55.45C62.4833 548.399 68.0167 546.299 72.05 542.099C76.0833 537.899 81.2333 527.116 87.5 509.749C93.2333 493.349 98.9333 481.949 104.6 475.549C110.3 469.183 119.567 465.999 132.4 465.999C136.5 465.999 141.883 466.949 148.55 468.849V498.799H135.65C134.617 490.199 130.85 485.899 124.35 485.899C120.35 485.899 116.917 487.766 114.05 491.499C111.183 495.233 107.233 503.483 102.2 516.249C98.2 526.683 94.7333 534.349 91.8 539.249C88.8333 544.149 84.8 548.199 79.7 551.399V552.449C93.9333 556.783 104.9 567.583 112.6 584.849L124.35 611.299C128.683 621.099 132.633 628.016 136.2 632.049C139.767 636.083 145.1 638.533 152.2 639.399V645.799H107.55ZM212.85 612.849C212.85 617.983 213.133 622.066 213.7 625.099C214.267 628.133 215.133 630.533 216.3 632.299C217.5 634.099 219.1 635.499 221.1 636.499C223.067 637.499 226.183 638.466 230.45 639.399V645.799H173.3V639.399C178.667 638.033 182.267 636.499 184.1 634.799C185.933 633.099 187.133 630.683 187.7 627.549C188.267 624.449 188.55 619.683 188.55 613.249V500.649C188.55 494.649 188.333 490.283 187.9 487.549C187.433 484.816 186.717 482.683 185.75 481.149C184.75 479.649 183.417 478.433 181.75 477.499C180.117 476.599 177.3 475.583 173.3 474.449V468.099H237.85C258.183 468.099 273.317 471.983 283.25 479.749C293.183 487.516 298.15 499.333 298.15 515.199C298.15 524.233 296.583 532.349 293.45 539.549C290.35 546.749 285.933 552.649 280.2 557.249C274.467 561.849 267.683 565.149 259.85 567.149C252.05 569.149 243.85 570.149 235.25 570.149C225.617 570.149 218.15 569.983 212.85 569.649V612.849ZM212.85 558.849H228C237.8 558.849 245.883 557.566 252.25 554.999C258.65 552.433 263.533 548.183 266.9 542.249C270.3 536.283 272 528.399 272 518.599C272 511.133 271 504.899 269 499.899C267 494.933 264.233 490.916 260.7 487.849C257.2 484.816 253.017 482.683 248.15 481.449C243.283 480.183 237.983 479.549 232.25 479.549C223.683 479.549 217.217 479.716 212.85 480.049V558.849ZM467.4 474.449C462.967 475.849 459.133 478.416 455.9 482.149C452.633 485.883 447.7 494.816 441.1 508.949L404.15 588.399C392.95 612.433 383.283 628.499 375.15 636.599C367.05 644.733 357.217 648.799 345.65 648.799C338.65 648.799 332.1 647.799 326 645.799V612.599H340.05C340.85 622.666 345.117 627.699 352.85 627.699C363.183 627.699 372.733 619.283 381.5 602.449L339.15 509.749C332.55 495.249 327.883 486.133 325.15 482.399C322.417 478.666 318.617 476.016 313.75 474.449V468.099H369.65V474.449C361.317 475.416 357.15 478.899 357.15 484.899C357.15 490.433 359.7 498.933 364.8 510.399L394.25 576.399L420.25 516.249C425.817 503.416 428.6 493.733 428.6 487.199C428.6 479.566 424.867 475.316 417.4 474.449V468.099H467.4V474.449ZM572.6 645.799V639.399C576.933 638.533 580.167 637.583 582.3 636.549C584.433 635.516 586.017 634.066 587.05 632.199C588.083 630.333 588.6 627.833 588.6 624.699C588.6 621.766 588.25 618.583 587.55 615.149C586.883 611.716 585.9 607.866 584.6 603.599L579.75 586.799H519.1L514.65 599.599C512.417 605.999 510.95 610.849 510.25 614.149C509.55 617.449 509.2 620.449 509.2 623.149C509.2 628.349 510.517 632.166 513.15 634.599C515.817 637.033 519.883 638.633 525.35 639.399V645.799H469.75V639.399C474.617 638.633 478.85 635.816 482.45 630.949C486.05 626.083 489.533 619.149 492.9 610.149L547.2 465.999H567.8L612.05 611.149C614.15 617.916 616 623.083 617.6 626.649C619.2 630.216 621.133 632.999 623.4 634.999C625.633 636.999 628.7 638.466 632.6 639.399V645.799H572.6ZM522.6 575.499H577.05L552.3 491.499L522.6 575.499ZM770.75 471.849V507.899H757.85C755.783 500.366 753.15 494.366 749.95 489.899C746.717 485.433 742.983 482.233 738.75 480.299C734.483 478.399 729.35 477.449 723.35 477.449C714.417 477.449 706.467 480.433 699.5 486.399C692.5 492.333 687 501.266 683 513.199C679 525.133 677 539.566 677 556.499C677 573.499 678.65 588.016 681.95 600.049C685.25 612.049 690.117 621.116 696.55 627.249C702.983 633.383 710.883 636.449 720.25 636.449C727.35 636.449 733.167 635.416 737.7 633.349C742.2 631.316 746 628.083 749.1 623.649C752.167 619.249 755.083 612.749 757.85 604.149H770.75V641.349C762.583 643.549 754.233 645.183 745.7 646.249C737.133 647.349 727.733 647.899 717.5 647.899C695.467 647.899 678.8 640.433 667.5 625.499C656.233 610.566 650.6 588.299 650.6 558.699C650.6 540.133 653.533 523.866 659.4 509.899C665.233 495.899 673.833 485.083 685.2 477.449C696.6 469.816 710.183 465.999 725.95 465.999C733.85 465.999 741.15 466.416 747.85 467.249C754.517 468.049 762.15 469.583 770.75 471.849ZM920.75 471.849V507.899H907.85C905.783 500.366 903.133 494.366 899.9 489.899C896.7 485.433 892.967 482.233 888.7 480.299C884.467 478.399 879.35 477.449 873.35 477.449C864.417 477.449 856.45 480.433 849.45 486.399C842.483 492.333 837 501.266 833 513.199C829 525.133 827 539.566 827 556.499C827 573.499 828.65 588.016 831.95 600.049C835.25 612.049 840.117 621.116 846.55 627.249C852.95 633.383 860.85 636.449 870.25 636.449C877.35 636.449 883.167 635.416 887.7 633.349C892.2 631.316 895.983 628.083 899.05 623.649C902.15 619.249 905.083 612.749 907.85 604.149H920.75V641.349C912.583 643.549 904.233 645.183 895.7 646.249C887.133 647.349 877.733 647.899 867.5 647.899C845.467 647.899 828.8 640.433 817.5 625.499C806.2 610.566 800.55 588.299 800.55 558.699C800.55 540.133 803.483 523.866 809.35 509.899C815.217 495.899 823.833 485.083 835.2 477.449C846.567 469.816 860.15 465.999 875.95 465.999C883.85 465.999 891.15 466.416 897.85 467.249C904.517 468.049 912.15 469.583 920.75 471.849ZM1038.7 645.799V639.399C1043.03 638.533 1046.27 637.583 1048.4 636.549C1050.53 635.516 1052.12 634.066 1053.15 632.199C1054.18 630.333 1054.7 627.833 1054.7 624.699C1054.7 621.766 1054.35 618.583 1053.65 615.149C1052.98 611.716 1052 607.866 1050.7 603.599L1045.85 586.799H985.2L980.75 599.599C978.517 605.999 977.05 610.849 976.35 614.149C975.65 617.449 975.3 620.449 975.3 623.149C975.3 628.349 976.617 632.166 979.25 634.599C981.917 637.033 985.983 638.633 991.45 639.399V645.799H935.85V639.399C940.717 638.633 944.95 635.816 948.55 630.949C952.15 626.083 955.633 619.149 959 610.149L1013.3 465.999H1033.9L1078.15 611.149C1080.25 617.916 1082.1 623.083 1083.7 626.649C1085.3 630.216 1087.23 632.999 1089.5 634.999C1091.73 636.999 1094.8 638.466 1098.7 639.399V645.799H1038.7ZM988.7 575.499H1043.15L1018.4 491.499L988.7 575.499ZM1253.25 613.249C1253.25 618.283 1253.38 622.066 1253.65 624.599C1253.92 627.099 1254.35 629.116 1254.95 630.649C1255.55 632.149 1256.28 633.383 1257.15 634.349C1258.02 635.283 1259.27 636.149 1260.9 636.949C1262.5 637.716 1264.98 638.533 1268.35 639.399V645.799H1213.8V639.399C1218.6 638.199 1221.95 636.866 1223.85 635.399C1225.75 633.899 1227.07 631.633 1227.8 628.599C1228.53 625.566 1228.9 620.449 1228.9 613.249V558.699H1156.55V613.249C1156.55 619.049 1156.73 623.299 1157.1 625.999C1157.5 628.699 1158.15 630.833 1159.05 632.399C1159.98 633.966 1161.33 635.266 1163.1 636.299C1164.87 637.333 1167.75 638.366 1171.75 639.399V645.799H1116.95V639.399C1122.32 638.033 1125.92 636.499 1127.75 634.799C1129.58 633.099 1130.78 630.683 1131.35 627.549C1131.92 624.449 1132.2 619.683 1132.2 613.249V500.649C1132.2 494.649 1131.98 490.283 1131.55 487.549C1131.12 484.816 1130.4 482.683 1129.4 481.149C1128.4 479.649 1127.07 478.433 1125.4 477.499C1123.77 476.599 1120.95 475.583 1116.95 474.449V468.099H1171.75V474.449C1167.95 475.416 1165.2 476.383 1163.5 477.349C1161.8 478.283 1160.45 479.466 1159.45 480.899C1158.45 482.333 1157.72 484.483 1157.25 487.349C1156.78 490.216 1156.55 494.649 1156.55 500.649V546.699H1228.9V500.649C1228.9 493.083 1228.53 487.916 1227.8 485.149C1227.07 482.349 1225.83 480.216 1224.1 478.749C1222.37 477.283 1218.93 475.849 1213.8 474.449V468.099H1268.35V474.449C1263.52 475.683 1260.13 477.049 1258.2 478.549C1256.3 480.083 1255 482.366 1254.3 485.399C1253.6 488.433 1253.25 493.516 1253.25 500.649V613.249Z" fill="black"/>
<path d="M360.175 761.699H380.875V759.249C374.775 758.799 374.525 758.649 374.525 754.349V742.349H377.725C386.625 742.349 387.475 745.599 389.675 754.399C391.475 761.349 397.825 762.699 403.825 762.699H405.525V759.899C401.275 759.899 398.775 758.649 397.225 751.449C396.025 745.999 391.225 741.249 383.475 740.349V740.149C385.625 739.649 388.675 735.399 390.375 728.649C391.125 725.599 394.075 722.099 395.875 722.099C396.875 722.099 397.475 722.699 397.475 723.799C397.475 725.599 396.975 727.049 396.975 728.199C396.975 730.699 399.525 730.949 400.625 730.949C403.575 730.949 404.425 728.399 404.425 727.049C404.425 724.299 402.675 719.149 396.275 719.149C391.225 719.149 387.825 724.249 386.475 729.299C385.125 734.399 383.175 739.399 375.975 739.399H374.525V727.549C374.525 723.199 374.775 723.049 380.875 722.599V720.149H360.175V722.599C366.275 723.049 366.525 723.199 366.525 727.549V754.349C366.525 758.649 366.275 758.799 360.175 759.249V761.699ZM424.675 750.699C424.675 757.049 428.925 762.699 436.875 762.699C441.825 762.699 446.825 759.399 449.525 757.649C450.725 760.749 452.075 762.699 455.025 762.699C458.175 762.699 461.825 761.799 465.025 760.149L464.525 758.149C463.325 758.399 461.475 758.549 460.225 758.199C458.675 757.899 457.225 756.299 457.225 750.949V730.399C457.225 725.499 456.125 719.149 443.325 719.149C433.775 719.149 426.225 724.149 426.225 728.799C426.225 731.499 429.375 732.799 430.975 732.799C432.725 732.799 433.275 731.849 433.675 730.399C435.525 724.149 439.025 722.099 442.425 722.099C445.725 722.099 449.625 723.799 449.625 730.599V734.149C447.475 736.349 439.275 738.499 432.575 740.599C426.475 742.449 424.675 746.699 424.675 750.699ZM433.275 749.499C433.275 745.499 435.125 743.499 439.875 741.699C443.275 740.399 447.725 738.799 449.625 737.649V749.599C449.625 756.449 444.375 758.199 441.075 758.199C435.775 758.199 433.275 754.499 433.275 749.499ZM481.725 740.949C481.725 753.649 489.125 762.699 498.875 762.699C503.075 762.699 505.825 760.999 507.925 758.199H508.025V773.799C508.025 778.149 507.425 778.299 500.275 778.749V781.199H523.675V778.749C516.575 778.299 515.975 778.149 515.975 773.799V758.199H516.075C518.175 760.999 520.875 762.699 525.125 762.699C534.875 762.699 542.275 753.649 542.275 740.949C542.275 728.199 534.875 719.149 525.125 719.149C520.875 719.149 518.175 720.849 516.075 723.649H515.975V699.299L515.375 698.799L502.075 700.949V703.049L505.275 703.399C507.525 703.649 508.025 704.049 508.025 707.299V723.649H507.925C505.825 720.849 503.075 719.149 498.875 719.149C489.125 719.149 481.725 728.199 481.725 740.949ZM490.575 740.949C490.575 732.049 493.175 722.099 499.975 722.099C504.625 722.099 508.025 727.349 508.025 732.449V749.399C508.025 754.499 504.625 759.749 499.975 759.749C493.175 759.749 490.575 749.849 490.575 740.949ZM515.975 749.399V732.449C515.975 727.349 519.375 722.099 524.025 722.099C530.825 722.099 533.425 732.049 533.425 740.949C533.425 749.849 530.825 759.749 524.025 759.749C519.375 759.749 515.975 754.499 515.975 749.399ZM563.275 741.249C563.275 754.649 569.025 762.699 582.875 762.699C592.275 762.699 597.075 757.449 599.375 750.749L596.825 749.399C594.475 754.349 591.225 758.399 584.575 758.399C574.025 758.399 571.925 748.199 572.075 739.399H596.525C598.275 739.399 599.875 738.999 599.875 736.199C599.875 731.199 598.275 719.149 582.775 719.149C569.525 719.149 563.275 728.549 563.275 741.249ZM572.175 736.199C572.175 732.699 573.425 722.099 582.275 722.099C590.125 722.099 591.075 730.149 591.075 733.449C591.075 735.099 590.575 736.199 588.175 736.199H572.175ZM617.275 733.749H619.875C622.425 725.249 623.775 723.149 628.025 723.149H628.525C631.675 723.149 632.625 723.299 632.625 727.799V754.349C632.625 758.649 632.025 758.799 624.875 759.249V761.699H648.275V759.249C641.175 758.799 640.575 758.649 640.575 754.349V727.799C640.575 723.299 641.525 723.149 644.625 723.149H645.175C649.375 723.149 650.775 725.249 653.275 733.749H655.925V720.149H617.275V733.749ZM674.675 741.249C674.675 754.649 680.425 762.699 694.225 762.699C703.625 762.699 708.475 757.449 710.775 750.749L708.225 749.399C705.825 754.349 702.625 758.399 695.925 758.399C685.425 758.399 683.275 748.199 683.475 739.399H707.875C709.675 739.399 711.275 738.999 711.275 736.199C711.275 731.199 709.675 719.149 694.125 719.149C680.925 719.149 674.675 728.549 674.675 741.249ZM683.575 736.199C683.575 732.699 684.825 722.099 693.625 722.099C701.525 722.099 702.475 730.149 702.475 733.449C702.475 735.099 701.925 736.199 699.575 736.199H683.575ZM728.925 778.749V781.199H750.875V778.749C743.725 778.299 743.225 778.149 743.225 773.799V760.749C745.025 761.799 748.975 762.699 752.875 762.699C764.325 762.699 774.175 757.449 774.175 739.999C774.175 733.999 773.075 719.149 757.625 719.149C751.425 719.149 746.525 723.299 743.225 725.399L742.125 719.149L729.325 721.249V723.399L732.525 723.799C734.725 724.149 735.275 724.549 735.275 727.649V773.799C735.275 778.149 734.825 778.299 728.925 778.749ZM743.225 748.399V734.499C743.225 732.349 743.575 731.199 744.325 729.649C746.275 725.749 749.925 723.749 754.425 723.749C757.825 723.749 765.325 725.949 765.325 740.499C765.325 752.949 761.425 759.749 752.975 759.749C748.575 759.749 745.175 757.449 743.825 753.549C743.325 752.049 743.225 750.349 743.225 748.399ZM793.725 761.699H814.425V759.249C808.325 758.799 808.075 758.649 808.075 754.349L827.575 731.949V754.349C827.575 758.649 827.325 758.799 821.225 759.249V761.699H841.875V759.249C835.775 758.799 835.525 758.649 835.525 754.349V727.549C835.525 723.199 835.775 723.049 841.875 722.599V720.149H821.225V722.599C827.075 723.049 827.575 723.199 827.575 727.049L808.075 749.399V727.549C808.075 723.199 808.325 723.049 814.425 722.599V720.149H793.725V722.599C799.825 723.049 800.125 723.199 800.125 727.549V754.349C800.125 758.649 799.825 758.799 793.725 759.249V761.699ZM870.475 705.149C870.475 708.299 873.825 713.549 884.075 713.549C894.375 713.549 897.725 708.299 897.725 705.149C897.725 700.999 895.975 698.899 893.675 698.899C890.625 698.899 889.275 701.199 889.275 702.549C889.275 704.249 891.225 705.599 891.225 707.599C891.225 709.399 887.925 710.599 884.075 710.599C880.275 710.599 876.975 709.399 876.975 707.599C876.975 705.599 878.925 704.249 878.925 702.549C878.925 701.199 877.575 698.899 874.525 698.899C872.225 698.899 870.475 700.999 870.475 705.149ZM860.025 761.699H880.725V759.249C874.625 758.799 874.375 758.649 874.375 754.349L893.825 731.949V754.349C893.825 758.649 893.575 758.799 887.475 759.249V761.699H908.175V759.249C902.075 758.799 901.825 758.649 901.825 754.349V727.549C901.825 723.199 902.075 723.049 908.175 722.599V720.149H887.475V722.599C893.325 723.049 893.825 723.199 893.825 727.049L874.375 749.399V727.549C874.375 723.199 874.625 723.049 880.725 722.599V720.149H860.025V722.599C866.125 723.049 866.375 723.199 866.375 727.549V754.349C866.375 758.649 866.125 758.799 860.025 759.249V761.699Z" fill="black"/>
<path d="M735.553 153.658C742.893 147.613 749.369 142.432 755.414 137.251C763.618 129.911 772.685 128.615 783.047 131.638C787.797 133.365 790.819 137.251 791.683 142.864C793.842 167.043 784.774 185.177 767.935 201.153C764.913 203.743 762.754 206.766 759.732 209.356C755.414 212.81 756.278 214.969 760.595 217.56C774.412 226.627 785.206 238.285 792.978 252.965C800.318 267.213 802.045 281.893 801.613 297.869C801.182 314.276 793.41 327.229 783.911 338.455C772.253 351.408 757.141 360.907 742.029 369.542C715.26 384.654 686.331 388.972 656.107 388.972C655.244 388.972 654.38 388.972 653.517 388.972C640.995 392.858 628.474 390.267 616.816 388.54C606.886 387.245 596.523 385.518 586.592 383.791C569.753 381.2 553.778 375.155 537.803 369.974C528.304 366.52 519.236 361.771 511.033 355.294C503.693 349.681 494.626 347.09 488.149 339.319C477.355 326.366 469.583 311.685 466.992 294.846C466.129 288.37 466.992 281.03 470.015 275.417C476.491 263.759 474.764 252.101 472.605 240.012C471.742 236.126 470.878 232.672 470.015 228.786C468.288 219.287 473.901 213.674 480.377 208.493C484.263 205.47 487.717 202.448 491.171 198.994C500.67 189.495 511.896 187.336 524.849 189.495C530.031 190.358 535.644 189.927 540.825 192.085C545.143 193.812 546.438 199.425 549.029 199.857C552.483 200.289 556.369 195.54 560.686 196.835C565.436 198.562 565.436 196.403 564.572 193.381C560.255 178.269 557.232 162.725 554.642 147.181C552.914 138.114 552.051 128.615 551.619 119.116C551.619 115.231 554.642 111.776 557.232 109.186C562.845 103.141 569.322 97.9597 577.094 94.9374C580.548 93.6421 584.002 92.3467 587.456 90.6197C592.637 88.0291 599.546 86.7338 602.568 82.4161C605.59 78.0984 600.409 72.0536 599.114 66.4406C597.387 59.5323 600.841 53.9193 602.568 47.8745C603.863 42.6933 606.022 37.9439 609.476 34.0579C615.089 27.5814 617.68 19.8096 620.27 12.0377C621.134 9.87887 621.134 7.72003 623.725 7.72003C626.747 7.72003 627.179 10.3106 628.042 12.4695C630.201 17.6507 629.769 23.2637 628.042 28.4449C625.883 35.785 624.156 43.1251 621.566 50.0334C618.975 58.6688 620.27 67.7359 620.702 76.8031C620.702 78.9619 621.134 81.5525 624.156 80.2572C627.179 78.9619 632.36 81.5525 632.36 76.3713C631.928 62.9865 640.564 53.4875 645.745 42.2615C649.631 34.0579 653.085 25.4226 654.38 16.3554C654.812 13.333 655.244 10.7424 653.085 7.72003C651.358 5.56118 651.358 1.67526 654.38 0.379957C657.403 -0.91535 660.425 1.24349 662.152 4.69765C666.038 13.7648 665.606 23.2637 664.743 32.3309C663.879 40.1027 660.857 47.011 657.403 53.4875C653.948 59.5323 653.517 66.4406 651.358 72.9171C650.062 76.8031 651.79 78.5301 656.539 78.5301C668.629 78.5301 668.197 78.5301 673.81 68.1677C682.445 50.8969 685.899 32.7626 686.331 13.7648C686.331 11.606 685.468 8.58357 688.922 8.1518C691.944 7.72003 693.671 9.87888 694.535 12.4695C699.716 28.8767 701.011 44.8522 691.944 59.9641C688.922 64.7135 686.763 69.8948 684.604 75.5078C683.309 79.8254 684.604 80.2572 688.058 81.1208C696.694 83.7114 706.192 83.2796 714.828 87.5973C720.009 90.1879 724.759 93.2103 730.372 94.9374C732.53 95.3691 733.826 97.528 735.121 99.6868C739.87 107.027 743.756 113.935 739.439 123.866C735.553 132.501 736.416 142.432 735.553 153.658ZM496.784 268.077C502.397 274.985 508.874 281.462 516.214 286.643C523.986 291.824 531.326 296.573 538.666 302.186C545.574 307.368 552.914 312.549 560.255 317.73C561.118 307.799 560.686 307.799 554.21 302.186C545.574 294.846 535.644 289.233 527.44 281.03C515.782 269.372 501.966 259.873 489.013 249.511C486.422 247.352 484.695 244.329 480.809 243.898C480.809 255.987 485.99 263.759 496.784 268.077ZM477.355 286.643C475.196 290.96 474.764 294.846 475.196 298.732C477.355 316.867 489.444 328.956 502.397 339.319C521.395 354.431 543.416 363.929 567.163 371.27C595.228 379.905 623.725 382.927 652.221 382.927C668.197 382.927 684.604 381.2 700.579 376.451C731.667 367.384 759.732 354.431 780.888 328.524C796.432 309.095 797.727 288.37 789.956 266.35C788.66 262.896 789.524 259.01 787.365 255.555C779.593 240.875 767.935 229.649 753.687 221.014C751.528 219.719 747.21 218.423 744.62 221.877C739.87 228.786 734.257 234.831 729.076 241.307C725.19 246.057 721.304 251.67 719.146 257.714C715.691 268.508 713.533 279.734 711.805 290.96C711.374 292.688 710.51 293.983 708.783 294.415C698.852 297.005 690.649 303.482 680.286 305.641C657.834 309.958 635.382 308.663 612.93 305.209C604.295 303.914 594.796 300.891 591.342 291.392C582.275 265.486 574.935 238.716 568.458 211.947C567.595 208.493 567.595 204.607 564.572 202.448C561.982 200.721 559.391 204.607 556.8 205.038C555.937 205.47 555.073 205.47 554.21 205.47C550.324 205.902 549.46 208.061 550.324 211.515C552.483 218.423 555.073 224.9 555.937 231.808C557.232 242.602 558.959 252.965 561.982 263.327C569.753 288.802 570.185 315.571 572.776 341.909C573.208 347.954 571.049 349.249 565.004 347.09C552.483 342.341 541.688 334.137 530.462 327.229C512.328 315.571 494.194 302.618 477.355 286.643ZM569.322 183.882C571.481 204.175 578.821 222.309 582.275 240.875C582.275 242.171 583.57 243.466 585.297 242.171C587.888 240.444 590.91 238.716 592.637 236.126C598.682 228.354 603.863 228.354 610.34 236.126C616.816 244.329 624.156 244.761 631.928 237.421C633.655 235.694 634.951 233.967 636.678 232.672C644.449 225.763 648.767 226.627 654.38 234.831C657.403 239.148 660.857 240.444 665.174 237.421C667.333 236.126 669.06 234.399 671.219 232.672C675.105 229.649 680.286 225.763 684.604 226.627C693.239 229.218 700.148 225.763 707.056 222.741C708.783 221.877 711.805 219.719 713.101 222.309C714.396 224.9 710.942 225.332 709.647 226.195C708.351 227.059 707.056 227.922 708.351 229.218C709.215 230.081 709.647 232.672 710.942 231.376C713.101 229.218 717.418 230.513 718.282 225.332C719.577 214.537 721.736 203.743 723.463 192.949C724.758 184.314 724.758 176.11 727.781 166.611C722.6 168.338 714.828 169.202 715.26 171.792C715.691 178.269 709.647 179.996 707.92 180.859C701.011 184.745 693.239 185.609 685.468 182.155C690.217 176.542 698.852 182.155 703.602 175.246C702.307 175.246 701.011 175.246 700.148 175.246C698.852 175.246 697.125 177.405 696.694 174.383C696.262 171.792 698.852 172.656 700.148 172.224C701.875 171.792 704.034 173.088 704.897 170.929C699.716 164.452 693.671 166.179 688.058 170.065C678.991 176.11 669.492 179.132 659.561 172.224C650.494 166.179 648.767 166.179 639.7 173.088C637.973 174.383 636.246 175.678 634.519 176.542C625.452 182.155 616.384 181.291 608.613 174.383C605.158 171.36 601.704 170.929 598.25 173.951C596.091 175.678 593.933 177.837 591.774 179.132C584.002 183.882 577.957 189.927 569.322 183.882ZM714.396 238.285C707.92 241.739 701.443 245.625 693.671 242.602C692.376 242.171 690.217 241.739 689.785 244.329C689.353 246.92 687.626 247.352 685.899 246.057C684.604 244.761 685.036 243.034 686.331 241.739C689.785 239.58 689.353 237.421 686.763 234.399C684.172 231.376 682.013 232.24 678.991 233.535C675.537 235.694 672.083 237.853 669.06 240.875C662.152 246.92 655.244 246.488 649.631 239.148C644.018 232.24 644.018 232.24 638.405 238.716C627.179 250.806 615.953 251.238 605.59 239.58C603 236.558 599.977 236.126 596.955 237.421C589.615 240.012 584.865 250.806 587.024 258.146C589.183 265.054 591.774 271.963 593.501 278.871C597.818 292.688 606.886 299.596 620.702 300.459C643.154 302.186 665.174 302.618 687.195 295.71C703.602 290.529 710.51 273.69 709.215 259.441C701.443 263.759 695.398 270.667 686.331 273.258C683.309 274.121 680.286 275.849 678.127 278.007C674.242 282.757 670.356 284.052 662.584 279.303C670.787 280.598 675.537 275.417 680.718 272.394C690.217 266.781 699.716 261.6 709.215 256.419C710.942 255.555 712.237 254.692 712.669 252.533C713.533 247.784 715.691 243.466 714.396 238.285ZM633.223 136.819C649.631 136.387 665.606 134.66 681.15 131.206C696.262 127.752 711.805 124.729 726.054 117.389C729.076 115.662 731.667 113.935 731.667 110.049C731.667 106.595 729.508 104.436 726.486 102.709C715.26 96.6644 704.465 91.0514 691.512 88.8926C680.718 87.1655 680.718 86.302 680.718 97.528C680.718 97.9597 680.718 98.3915 680.718 98.8233C680.718 101.414 681.15 104.005 676.832 104.868C672.946 105.732 671.219 104.005 670.356 100.982C669.492 98.3915 668.197 96.2327 668.197 93.6421C669.06 85.4384 665.606 83.7114 658.266 85.0067C656.971 85.4384 655.675 85.0067 653.948 85.0067C650.926 84.5749 649.199 85.8702 649.631 89.3244C650.494 93.6421 648.335 97.9597 648.335 102.277C647.904 104.868 645.313 106.595 644.449 104.868C641.427 100.119 633.223 99.2551 634.087 91.4832C634.087 89.7561 634.087 86.302 629.769 86.302C621.997 86.302 616.384 92.7785 618.112 100.55C618.975 104.005 620.27 107.459 616.816 108.754C613.362 110.049 612.067 105.3 609.908 103.141C609.476 102.709 609.476 101.846 609.476 101.414C609.044 93.2103 604.727 93.2103 598.682 95.8009C597.818 96.2327 596.523 95.8009 595.228 96.2327C582.707 100.982 569.753 106.163 561.118 117.389C556.8 123.002 558.959 128.184 565.868 129.479C588.32 134.66 611.203 135.955 633.223 136.819ZM559.823 134.66C559.391 143.295 562.413 150.636 562.845 158.407C563.277 167.043 567.595 173.951 574.503 179.564C576.662 181.291 577.957 181.291 580.548 179.996C585.729 176.973 590.91 173.088 595.66 169.633C600.409 166.179 609.476 167.043 612.499 171.792C615.089 176.11 618.543 176.11 622.429 175.246C628.042 174.383 632.792 170.929 637.109 167.906C647.04 160.998 651.79 160.566 661.72 167.475C667.333 171.36 672.514 173.519 678.991 169.202C682.013 167.043 685.036 164.884 688.058 163.157C691.944 160.566 697.125 158.407 701.011 160.998C708.783 166.179 715.26 163.157 723.031 161.43C731.235 159.271 729.508 154.09 729.508 149.34C729.508 147.181 730.372 144.591 728.213 142.864C724.759 140.705 724.759 140.705 729.076 138.114C730.803 137.251 730.372 135.955 730.372 134.66C730.372 132.933 729.508 133.365 728.213 133.365C717.85 135.092 708.351 140.273 697.989 142C693.239 142.864 688.922 142.864 685.036 138.546C684.172 137.251 682.877 137.682 682.013 138.114C680.286 138.978 678.127 138.978 675.969 139.41C655.244 142 634.087 142.864 612.93 142.432C594.364 142.432 577.094 138.978 559.823 134.66ZM510.601 256.419C527.872 270.667 541.688 287.506 561.982 297.005C560.686 282.757 558.096 269.372 554.642 255.987C550.756 239.58 546.438 223.173 542.552 206.766C542.12 205.038 540.825 203.743 539.098 204.175C535.644 205.47 532.19 205.47 528.735 205.47C526.145 205.47 525.713 207.629 525.713 209.356C525.713 211.083 524.849 213.242 526.577 214.537C528.304 215.833 529.167 213.242 530.462 212.379C535.212 209.356 537.803 211.515 538.234 216.264C538.666 221.877 540.393 227.49 541.257 233.103C542.552 240.875 533.917 252.965 526.577 253.828C521.827 255.555 517.078 255.987 510.601 256.419ZM484.695 270.236C482.968 280.598 485.558 288.37 495.057 293.119C495.921 293.551 496.784 294.415 497.648 295.278C516.214 312.117 537.371 325.934 559.391 338.023C564.14 340.614 565.436 339.75 565.004 334.569C565.004 331.979 564.14 329.388 561.982 328.093C554.21 322.48 546.438 317.298 539.098 311.685C535.644 308.663 534.78 314.276 532.19 312.981C527.008 311.254 535.212 307.799 531.326 306.072C527.44 304.345 525.713 298.301 519.668 302.186C517.941 303.482 516.646 300.891 516.214 299.164C515.782 291.392 508.874 290.96 504.556 286.643C503.261 289.665 506.715 291.824 504.125 293.983C499.807 291.824 497.216 289.233 498.512 284.052C498.943 282.757 498.943 282.325 497.648 281.462C493.762 277.576 489.444 273.69 484.695 270.236ZM726.054 220.15C740.734 205.47 753.255 190.358 764.481 174.383C767.072 170.497 769.231 166.611 769.662 161.862C769.662 159.703 769.662 157.976 767.504 156.249C765.345 154.521 763.618 155.817 761.891 157.112C758.868 159.703 755.846 162.725 752.392 165.316C745.915 170.497 741.166 177.837 734.689 182.586C729.94 185.609 729.076 189.495 729.076 193.381C728.644 202.016 727.349 210.651 726.054 220.15ZM732.962 174.383C735.985 173.951 736.416 171.36 737.712 169.633C743.325 162.293 749.801 155.817 757.573 150.636C762.322 147.181 767.504 147.613 772.685 149.34C777.003 150.636 777.434 154.953 777.003 158.839C775.707 168.77 771.821 178.269 766.208 186.472C756.278 200.289 743.325 211.515 732.53 224.468C729.076 228.354 725.622 232.24 723.031 236.989C722.168 238.716 721.304 240.875 723.031 242.171C724.759 243.466 726.054 241.307 726.917 240.444C730.372 237.421 732.53 233.103 735.121 229.649C739.87 222.309 745.483 215.833 751.96 209.788C757.141 205.038 762.322 200.721 767.072 195.971C772.253 190.358 773.117 182.586 777.434 177.837C784.774 169.633 783.911 160.134 783.911 150.636C783.911 140.705 775.275 136.387 767.072 141.137C757.573 146.75 748.074 152.794 741.166 160.998C737.28 164.452 732.099 167.906 732.962 174.383ZM622.861 24.559C618.543 35.3532 609.044 43.1251 606.454 54.7829C603.431 67.3042 610.771 77.2348 612.93 88.4608C617.248 77.6666 611.203 66.4406 613.794 55.6464C616.384 45.7157 620.702 35.3532 622.861 24.559ZM531.758 198.994C527.872 197.698 525.281 198.562 523.122 197.267C515.782 192.949 508.01 195.54 502.397 198.562C494.194 203.311 487.717 210.651 480.809 217.128C479.082 218.423 476.491 221.446 479.082 223.605C480.809 224.9 483.4 222.309 484.695 221.014C490.308 212.81 498.08 208.924 507.147 205.47C514.055 201.584 521.827 199.857 531.758 198.994ZM495.489 244.761C496.784 240.444 498.08 236.558 497.216 231.808C496.353 227.059 496.353 221.877 501.966 219.287C503.693 218.423 505.852 217.128 504.556 215.401C503.261 213.674 500.67 213.674 498.943 215.401C493.33 221.014 486.422 225.763 482.968 232.672C481.673 235.694 490.308 240.012 494.194 244.329C494.194 244.761 494.626 244.761 495.489 244.761ZM658.698 33.6262C658.266 33.1944 657.403 33.1944 656.971 32.7626C651.79 43.5569 646.177 53.9193 641.427 64.7135C637.109 74.2125 637.973 84.1431 642.722 93.6421C641.859 72.0536 650.926 53.0558 658.698 33.6262ZM511.896 249.079C521.395 249.942 527.872 248.215 531.758 240.875C532.621 239.148 533.917 236.989 532.19 235.262C530.462 233.535 528.735 235.262 527.44 236.558C521.395 240.444 514.487 242.171 507.579 241.307C504.988 240.875 503.261 241.307 502.829 243.898C502.397 246.92 504.125 248.647 506.283 249.079C508.874 249.511 511.465 249.079 511.896 249.079ZM673.81 94.5056C676.4 82.4161 679.855 70.7583 685.468 59.9641C689.785 51.3287 694.535 41.398 690.217 31.0356C690.649 43.1251 686.763 54.3511 680.718 64.7135C676.4 72.0536 674.242 80.2572 672.083 88.4608C671.651 90.1879 671.651 92.3467 673.81 94.5056ZM731.235 124.298C718.714 129.479 704.897 132.07 692.376 138.114C706.624 138.114 719.577 132.501 731.235 124.298ZM529.167 223.173C525.713 224.468 522.259 226.195 518.805 226.627C514.919 227.49 511.033 227.49 507.147 228.354C505.852 228.786 503.261 225.763 502.829 229.218C502.397 231.808 504.988 232.672 506.715 233.535C513.623 236.126 525.713 230.945 529.167 223.173ZM511.896 215.401C511.896 217.56 511.033 219.719 514.055 220.15C516.646 220.15 518.373 218.423 518.805 216.264C519.236 213.674 517.509 211.515 515.351 211.083C512.76 210.22 512.328 213.242 511.896 215.401Z" fill="black"/>
<path d="M710.078 363.066C703.17 363.066 696.694 361.771 689.785 363.066C681.582 364.361 675.537 358.316 668.629 355.726C667.333 355.294 666.038 353.567 665.174 353.999C653.517 355.726 646.177 350.545 641.859 340.182C641.427 339.319 641.427 338.455 640.132 338.887C634.519 340.614 632.36 336.296 631.065 332.41C629.769 328.093 628.906 323.775 632.792 319.457C636.246 315.571 638.837 311.685 644.45 310.822C645.745 310.822 646.608 309.958 647.472 310.822C653.085 315.571 660.425 312.981 666.47 314.276C678.559 317.73 689.785 311.254 701.443 312.981C704.465 313.412 705.329 310.822 707.488 309.958C716.555 306.072 723.895 300.459 729.94 292.688C731.667 290.529 732.962 288.802 733.826 286.211C735.121 279.734 738.575 274.985 744.62 271.963C747.642 270.667 748.074 268.077 748.938 265.054C750.233 260.305 752.824 255.987 758.868 255.987C764.05 256.419 768.799 261.6 768.367 267.645C767.935 273.69 768.367 279.303 770.094 285.347C771.39 290.097 768.367 296.142 765.777 300.891C763.618 304.777 763.186 307.799 763.618 311.254C764.481 319.457 761.027 325.502 754.982 330.683C751.528 333.706 748.506 337.16 746.779 341.477C739.87 357.021 726.486 363.066 710.078 363.066ZM710.942 357.453C720.009 358.316 728.213 353.999 735.121 347.522C738.575 344.068 741.166 340.182 740.302 335.001C738.575 326.366 733.394 318.594 729.076 310.822C727.781 308.231 726.054 306.504 723.031 309.095C718.282 312.549 713.533 316.003 707.92 319.025C705.761 320.321 704.897 322.911 704.897 325.502C705.761 333.706 703.17 341.477 702.738 349.249C702.307 357.453 701.875 357.453 710.942 357.453ZM697.989 329.82C697.557 319.889 696.694 319.025 688.922 320.753C686.763 321.184 684.172 321.184 682.013 322.048C679.423 322.911 676.4 322.911 675.537 326.366C674.242 331.979 672.515 337.592 670.787 343.636C669.924 346.659 669.924 350.113 672.946 351.84C677.264 354.431 682.013 357.021 687.626 357.021C691.944 357.021 694.535 355.726 694.966 350.976C696.262 342.773 697.557 335.433 697.989 329.82ZM756.278 314.276C756.278 303.914 744.188 293.119 737.28 294.846C733.826 295.71 730.803 299.164 732.53 301.323C738.575 309.095 740.302 318.594 745.915 326.797C747.211 328.956 748.506 328.956 749.801 326.797C752.392 322.048 756.278 317.298 756.278 314.276ZM669.924 323.343C669.924 321.616 669.492 320.321 667.333 320.321C663.879 320.321 659.993 320.321 658.266 323.775C656.107 328.093 653.517 331.547 650.063 334.569C647.472 336.296 647.472 339.319 648.335 341.909C650.063 346.227 654.812 346.659 658.698 347.522C660.857 347.954 663.447 347.09 664.311 344.5C666.038 337.16 668.197 330.251 669.924 323.343ZM750.233 278.439C745.052 277.576 742.029 281.03 741.166 285.347C739.87 290.097 745.052 289.665 747.211 290.96C749.801 292.256 753.255 293.119 755.846 295.278C758.437 297.437 759.732 296.573 761.027 293.551C764.481 285.347 760.164 278.871 750.233 278.439ZM651.79 323.343C646.177 324.207 649.199 316.867 644.45 317.298C639.268 317.73 636.678 322.48 636.246 326.797C635.814 328.524 636.246 332.842 640.564 331.979C644.881 331.547 648.767 329.388 651.79 323.343ZM761.891 267.213C761.027 265.486 759.732 263.327 757.573 263.759C754.982 264.191 754.982 266.35 754.982 268.508C754.982 270.667 755.846 271.963 758.437 271.531C760.595 271.099 761.027 269.372 761.891 267.213Z" fill="black"/>
<path d="M710.078 189.495C705.761 189.063 703.17 192.949 699.284 193.381C704.034 194.676 708.351 194.244 711.805 190.358C713.101 188.631 715.691 188.199 716.987 190.358C718.714 192.949 716.555 194.244 714.828 195.108C710.51 196.835 707.056 199.857 701.011 197.698C697.989 196.403 692.808 199.425 688.922 200.721C687.195 201.153 685.468 201.584 683.309 200.721C685.036 195.54 690.649 198.13 693.671 195.971C694.535 195.108 697.557 196.403 696.694 193.812C696.262 191.654 694.535 191.654 692.376 192.517C689.353 193.812 686.331 195.108 683.309 194.676C682.013 194.676 681.15 193.812 681.15 192.517C681.15 192.085 682.445 191.222 683.309 191.222C687.195 190.358 691.512 189.495 695.398 188.631C696.262 188.631 697.989 188.631 697.989 188.631C698.421 194.676 700.579 190.358 702.307 189.495C704.465 186.904 707.056 184.314 710.078 189.495Z" fill="black"/>
<path d="M701.875 210.651C703.17 213.674 708.783 210.22 707.919 214.537C707.056 217.56 703.17 217.56 700.148 217.56C697.125 217.56 693.671 214.969 693.239 213.674C692.376 210.651 696.262 210.22 698.421 209.356C705.329 207.629 710.942 202.88 719.577 203.743C714.396 209.356 706.624 206.334 701.875 210.651Z" fill="black"/>
<path d="M702.738 200.721C697.989 207.197 692.376 209.356 685.899 207.629C690.217 202.448 697.557 204.607 702.738 200.721Z" fill="black"/>
<path d="M687.626 282.757C692.376 278.007 700.148 281.462 704.465 275.849C705.761 278.007 704.897 279.735 703.602 280.598C696.262 284.916 690.217 292.256 680.718 292.256C677.264 292.256 674.673 295.71 671.219 295.71C670.356 295.71 669.06 297.005 668.629 295.278C668.197 294.415 668.197 293.119 668.629 291.824C669.06 290.097 671.219 290.529 672.083 290.961C675.105 291.392 690.217 287.075 691.081 284.916C692.376 280.598 688.058 284.916 687.626 282.757Z" fill="black"/>
<path d="M707.92 248.215C707.056 250.806 704.897 251.238 703.17 251.67C694.966 253.397 687.626 256.419 681.582 262.464C679.855 263.759 677.696 263.759 676.832 262.464C675.537 260.305 677.264 259.441 678.991 258.578C687.195 254.692 694.966 249.942 703.602 246.92C704.897 246.488 707.056 245.625 707.92 248.215Z" fill="black"/>
<path d="M717.418 145.023C716.555 148.909 713.533 147.181 712.669 149.34C714.396 150.636 716.123 150.204 717.85 150.204C719.577 149.772 721.304 148.909 721.736 151.067C722.6 153.658 720.009 154.09 718.282 154.09C708.783 155.817 699.284 157.112 689.353 158.839C690.217 154.09 693.239 153.658 696.262 153.226C699.284 152.794 702.738 155.385 706.624 151.931C701.011 150.204 696.262 150.636 691.512 151.931C690.217 152.363 688.49 152.794 688.49 150.636C688.49 148.909 689.785 148.045 691.081 148.477C700.148 151.067 708.351 147.181 717.418 145.023Z" fill="black"/>
<path d="M496.784 268.077C498.08 266.35 495.921 263.327 498.512 262.032C499.807 261.6 501.534 261.6 502.397 262.896C503.693 265.054 507.147 266.781 504.556 269.804C501.102 273.69 498.943 269.804 496.784 268.077Z" fill="black"/>
</svg>
