<svg xmlns="http://www.w3.org/2000/svg" xmlns:xlink="http://www.w3.org/1999/xlink" xmlns:svgjs="http://svgjs.com/svgjs" version="1.1" width="1568.3500671386719" height="1081.1993016914937"><g transform="scale(5) translate(30, 30)"> <defs id="SvgjsDefs1040"></defs><g xmlns:name="main_text" id="SvgjsG1041" rel="mainfill" name="main_text" transform="translate(-3.1500000953674316,-110.84014149275595)" fill="#597d06" style="fill: #597d06"><path d="M24.66 240L24.66 238.72Q23.59 236.09 22.86 234.12L20.91 228.86Q19.92 226.20 19.11 225.03Q18.31 223.86 17.22 223.31Q16.14 222.76 14.30 222.76L11.12 222.76L11.12 233.52Q11.12 236.64 11.68 237.45Q12.24 238.26 14.14 238.72L14.14 240L3.15 240L3.15 238.72Q4.92 238.31 5.57 237.60Q6.22 236.90 6.22 233.52L6.22 210.99Q6.22 207.56 5.55 206.85Q4.87 206.15 3.15 205.73L3.15 204.46L14.14 204.46L14.14 205.73Q12.39 206.18 11.76 206.89Q11.12 207.61 11.12 210.99L11.12 220.52L14.24 220.52Q16.35 220.52 17.56 219.26Q18.77 218.00 20.65 212.79Q22.37 207.87 24.07 205.95Q25.78 204.04 29.63 204.04Q30.86 204.04 32.86 204.61L32.86 210.60L30.28 210.60Q29.97 208.02 28.02 208.02Q26.82 208.02 25.96 209.14Q25.10 210.26 23.59 214.09Q22.39 217.22 21.51 218.69Q20.62 220.16 19.09 221.12L19.09 221.33Q23.36 222.63 25.67 227.81L28.02 233.10Q29.32 236.04 30.39 237.25Q31.46 238.46 33.59 238.72L33.59 240L24.66 240ZM45.72 233.41Q45.72 234.95 45.89 235.86Q46.06 236.77 46.41 237.30Q46.77 237.84 47.37 238.14Q47.96 238.44 49.24 238.72L49.24 240L37.81 240L37.81 238.72Q39.42 238.31 39.97 237.80Q40.52 237.29 40.69 236.35Q40.86 235.42 40.86 233.49L40.86 210.97Q40.86 209.17 40.73 208.35Q40.59 207.53 40.30 207.07Q40.00 206.62 39.50 206.34Q39.01 206.07 37.81 205.73L37.81 204.46L50.72 204.46Q56.82 204.46 59.80 206.79Q62.78 209.12 62.78 213.88Q62.78 216.59 61.84 218.75Q60.91 220.91 59.19 222.29Q57.47 223.67 55.12 224.27Q52.78 224.87 50.20 224.87Q47.31 224.87 45.72 224.77L45.72 233.41M45.72 222.61L48.75 222.61Q51.69 222.61 53.60 221.84Q55.52 221.07 56.53 219.29Q57.55 217.50 57.55 214.56Q57.55 212.32 56.95 210.82Q56.35 209.33 55.29 208.41Q54.24 207.50 52.78 207.13Q51.32 206.75 49.60 206.75Q47.03 206.75 45.72 206.85L45.72 222.61ZM96.63 205.73Q95.30 206.15 94.33 207.27Q93.35 208.39 91.37 212.63L83.98 228.52Q80.62 235.73 78.18 238.16Q75.75 240.60 72.28 240.60Q70.18 240.60 68.35 240L68.35 233.36L71.16 233.36Q71.40 236.38 73.72 236.38Q76.82 236.38 79.45 231.33L70.98 212.79Q69.00 208.44 68.18 207.32Q67.36 206.20 65.90 205.73L65.90 204.46L77.08 204.46L77.08 205.73Q74.58 206.02 74.58 207.82Q74.58 209.48 76.11 212.92L82.00 226.12L87.20 214.09Q88.87 210.24 88.87 208.28Q88.87 205.99 86.63 205.73L86.63 204.46L96.63 204.46L96.63 205.73ZM117.67 240L117.67 238.72Q118.97 238.46 119.61 238.15Q120.25 237.84 120.56 237.28Q120.87 236.72 120.87 235.78Q120.87 234.90 120.66 233.87Q120.46 232.84 120.07 231.56L119.10 228.20L106.97 228.20L106.08 230.76Q105.41 232.68 105.20 233.67Q104.99 234.66 104.99 235.47Q104.99 237.03 105.78 237.76Q106.58 238.49 108.22 238.72L108.22 240L97.10 240L97.10 238.72Q98.56 238.49 99.64 237.03Q100.72 235.57 101.73 232.87L112.59 204.04L116.71 204.04L125.56 233.07Q126.19 235.10 126.67 236.17Q127.15 237.24 127.83 237.84Q128.50 238.44 129.67 238.72L129.67 240L117.67 240M107.67 225.94L118.56 225.94L113.61 209.14L107.67 225.94ZM157.30 205.21L157.30 212.42L154.72 212.42Q154.10 210.16 153.14 208.82Q152.17 207.48 150.90 206.90Q149.62 206.33 147.82 206.33Q145.14 206.33 143.05 208.12Q140.95 209.90 139.75 213.48Q138.55 217.06 138.55 222.14Q138.55 227.24 139.54 230.85Q140.53 234.45 142.46 236.29Q144.39 238.13 147.20 238.13Q149.33 238.13 150.69 237.51Q152.04 236.90 152.97 235.57Q153.89 234.25 154.72 231.67L157.30 231.67L157.30 239.11Q154.85 239.77 152.29 240.09Q149.72 240.42 146.65 240.42Q140.04 240.42 136.65 235.94Q133.27 231.46 133.27 222.58Q133.27 217.01 135.03 212.82Q136.78 208.62 140.19 206.33Q143.61 204.04 148.34 204.04Q150.71 204.04 152.72 204.29Q154.72 204.53 157.30 205.21ZM187.30 205.21L187.30 212.42L184.72 212.42Q184.10 210.16 183.13 208.82Q182.17 207.48 180.89 206.90Q179.62 206.33 177.82 206.33Q175.14 206.33 173.04 208.12Q170.95 209.90 169.75 213.48Q168.55 217.06 168.55 222.14Q168.55 227.24 169.54 230.85Q170.53 234.45 172.46 236.29Q174.38 238.13 177.20 238.13Q179.33 238.13 180.69 237.51Q182.04 236.90 182.96 235.57Q183.89 234.25 184.72 231.67L187.30 231.67L187.30 239.11Q184.85 239.77 182.29 240.09Q179.72 240.42 176.65 240.42Q170.04 240.42 166.65 235.94Q163.26 231.46 163.26 222.58Q163.26 217.01 165.02 212.82Q166.78 208.62 170.19 206.33Q173.60 204.04 178.34 204.04Q180.71 204.04 182.72 204.29Q184.72 204.53 187.30 205.21ZM210.89 240L210.89 238.72Q212.19 238.46 212.83 238.15Q213.47 237.84 213.78 237.28Q214.09 236.72 214.09 235.78Q214.09 234.90 213.88 233.87Q213.68 232.84 213.29 231.56L212.32 228.20L200.19 228.20L199.30 230.76Q198.63 232.68 198.42 233.67Q198.21 234.66 198.21 235.47Q198.21 237.03 199.00 237.76Q199.80 238.49 201.44 238.72L201.44 240L190.32 240L190.32 238.72Q191.78 238.49 192.86 237.03Q193.94 235.57 194.95 232.87L205.81 204.04L209.93 204.04L218.78 233.07Q219.41 235.10 219.89 236.17Q220.37 237.24 221.05 237.84Q221.72 238.44 222.89 238.72L222.89 240L210.89 240M200.89 225.94L211.78 225.94L206.83 209.14L200.89 225.94ZM253.80 233.49Q253.80 235.00 253.88 235.76Q253.96 236.51 254.14 236.97Q254.32 237.42 254.58 237.71Q254.84 237.99 255.33 238.23Q255.81 238.46 256.82 238.72L256.82 240L245.91 240L245.91 238.72Q247.35 238.36 247.92 237.92Q248.49 237.47 248.71 236.56Q248.93 235.65 248.93 233.49L248.93 222.58L234.46 222.58L234.46 233.49Q234.46 235.23 234.57 236.04Q234.69 236.85 234.96 237.32Q235.24 237.79 235.77 238.10Q236.30 238.41 237.50 238.72L237.50 240L226.54 240L226.54 238.72Q228.15 238.31 228.70 237.80Q229.25 237.29 229.42 236.35Q229.59 235.42 229.59 233.49L229.59 210.97Q229.59 209.17 229.46 208.35Q229.33 207.53 229.03 207.07Q228.73 206.62 228.23 206.34Q227.74 206.07 226.54 205.73L226.54 204.46L237.50 204.46L237.50 205.73Q236.36 206.02 235.85 206.31Q235.34 206.59 235.04 207.02Q234.74 207.45 234.60 208.31Q234.46 209.17 234.46 210.97L234.46 220.18L248.93 220.18L248.93 210.97Q248.93 208.70 248.71 207.87Q248.49 207.03 247.97 206.59Q247.45 206.15 245.91 205.73L245.91 204.46L256.82 204.46L256.82 205.73Q255.37 206.10 254.79 206.55Q254.22 207.01 254.01 207.92Q253.80 208.83 253.80 210.97L253.80 233.49Z" fill="#597d06" style="fill: #597d06"></path></g><g xmlns:name="slogan_text" id="SvgjsG1042" rel="mainfill" name="main_text" transform="translate(71.49500745534897,-87.66013355818563)" fill="#597d06" style="fill: #597d06"><path d="M0.54 240L4.68 240L4.68 239.51C3.46 239.42 3.41 239.39 3.41 238.53L3.41 236.13L4.05 236.13C5.83 236.13 6.00 236.78 6.44 238.54C6.80 239.93 8.07 240.20 9.27 240.20L9.61 240.20L9.61 239.64C8.76 239.64 8.26 239.39 7.95 237.95C7.71 236.86 6.75 235.91 5.20 235.73L5.20 235.69C5.63 235.59 6.24 234.74 6.58 233.39C6.73 232.78 7.32 232.08 7.68 232.08C7.88 232.08 8.00 232.20 8.00 232.42C8.00 232.78 7.90 233.07 7.90 233.30C7.90 233.80 8.41 233.85 8.63 233.85C9.22 233.85 9.39 233.34 9.39 233.07C9.39 232.52 9.04 231.49 7.76 231.49C6.75 231.49 6.07 232.51 5.80 233.52C5.53 234.54 5.14 235.54 3.70 235.54L3.41 235.54L3.41 233.17C3.41 232.30 3.46 232.27 4.68 232.18L4.68 231.69L0.54 231.69L0.54 232.18C1.76 232.27 1.81 232.30 1.81 233.17L1.81 238.53C1.81 239.39 1.76 239.42 0.54 239.51ZM13.44 237.80C13.44 239.07 14.29 240.20 15.88 240.20C16.87 240.20 17.87 239.54 18.41 239.19C18.65 239.81 18.92 240.20 19.51 240.20C20.14 240.20 20.87 240.02 21.51 239.69L21.41 239.29C21.17 239.34 20.80 239.37 20.55 239.30C20.24 239.24 19.95 238.92 19.95 237.85L19.95 233.74C19.95 232.76 19.73 231.49 17.17 231.49C15.26 231.49 13.75 232.49 13.75 233.42C13.75 233.96 14.38 234.22 14.70 234.22C15.05 234.22 15.16 234.03 15.24 233.74C15.61 232.49 16.31 232.08 16.99 232.08C17.65 232.08 18.43 232.42 18.43 233.78L18.43 234.49C18.00 234.93 16.36 235.36 15.02 235.78C13.80 236.15 13.44 237.00 13.44 237.80ZM15.16 237.56C15.16 236.76 15.53 236.36 16.48 236.00C17.16 235.74 18.05 235.42 18.43 235.19L18.43 237.58C18.43 238.95 17.38 239.30 16.72 239.30C15.66 239.30 15.16 238.56 15.16 237.56ZM24.85 235.85C24.85 238.39 26.33 240.20 28.28 240.20C29.12 240.20 29.67 239.86 30.09 239.30L30.11 239.30L30.11 242.42C30.11 243.29 29.99 243.32 28.56 243.41L28.56 243.90L33.24 243.90L33.24 243.41C31.82 243.32 31.70 243.29 31.70 242.42L31.70 239.30L31.72 239.30C32.14 239.86 32.68 240.20 33.53 240.20C35.48 240.20 36.96 238.39 36.96 235.85C36.96 233.30 35.48 231.49 33.53 231.49C32.68 231.49 32.14 231.83 31.72 232.39L31.70 232.39L31.70 227.52L31.58 227.42L28.92 227.85L28.92 228.27L29.56 228.34C30.01 228.39 30.11 228.47 30.11 229.12L30.11 232.39L30.09 232.39C29.67 231.83 29.12 231.49 28.28 231.49C26.33 231.49 24.85 233.30 24.85 235.85ZM26.62 235.85C26.62 234.07 27.14 232.08 28.50 232.08C29.43 232.08 30.11 233.13 30.11 234.15L30.11 237.54C30.11 238.56 29.43 239.61 28.50 239.61C27.14 239.61 26.62 237.63 26.62 235.85ZM31.70 237.54L31.70 234.15C31.70 233.13 32.38 232.08 33.31 232.08C34.67 232.08 35.19 234.07 35.19 235.85C35.19 237.63 34.67 239.61 33.31 239.61C32.38 239.61 31.70 238.56 31.70 237.54ZM41.16 235.91C41.16 238.59 42.31 240.20 45.08 240.20C46.96 240.20 47.92 239.15 48.38 237.81L47.87 237.54C47.40 238.53 46.75 239.34 45.42 239.34C43.31 239.34 42.89 237.30 42.92 235.54L47.81 235.54C48.16 235.54 48.48 235.46 48.48 234.90C48.48 233.90 48.16 231.49 45.06 231.49C42.41 231.49 41.16 233.37 41.16 235.91ZM42.94 234.90C42.94 234.20 43.19 232.08 44.96 232.08C46.53 232.08 46.72 233.69 46.72 234.35C46.72 234.68 46.62 234.90 46.14 234.90ZM51.96 234.41L52.48 234.41C52.99 232.71 53.26 232.29 54.11 232.29L54.21 232.29C54.84 232.29 55.03 232.32 55.03 233.22L55.03 238.53C55.03 239.39 54.91 239.42 53.48 239.51L53.48 240L58.16 240L58.16 239.51C56.74 239.42 56.62 239.39 56.62 238.53L56.62 233.22C56.62 232.32 56.81 232.29 57.43 232.29L57.54 232.29C58.38 232.29 58.66 232.71 59.16 234.41L59.69 234.41L59.69 231.69L51.96 231.69ZM63.44 235.91C63.44 238.59 64.59 240.20 67.35 240.20C69.23 240.20 70.20 239.15 70.66 237.81L70.15 237.54C69.67 238.53 69.03 239.34 67.69 239.34C65.59 239.34 65.16 237.30 65.20 235.54L70.08 235.54C70.44 235.54 70.76 235.46 70.76 234.90C70.76 233.90 70.44 231.49 67.33 231.49C64.69 231.49 63.44 233.37 63.44 235.91ZM65.22 234.90C65.22 234.20 65.47 232.08 67.23 232.08C68.81 232.08 69.00 233.69 69.00 234.35C69.00 234.68 68.89 234.90 68.42 234.90ZM74.29 243.41L74.29 243.90L78.68 243.90L78.68 243.41C77.25 243.32 77.15 243.29 77.15 242.42L77.15 239.81C77.51 240.02 78.30 240.20 79.08 240.20C81.37 240.20 83.34 239.15 83.34 235.66C83.34 234.46 83.12 231.49 80.03 231.49C78.79 231.49 77.81 232.32 77.15 232.74L76.93 231.49L74.37 231.91L74.37 232.34L75.01 232.42C75.45 232.49 75.56 232.57 75.56 233.19L75.56 242.42C75.56 243.29 75.47 243.32 74.29 243.41ZM77.15 237.34L77.15 234.56C77.15 234.13 77.22 233.90 77.37 233.59C77.76 232.81 78.49 232.41 79.39 232.41C80.07 232.41 81.57 232.85 81.57 235.76C81.57 238.25 80.79 239.61 79.10 239.61C78.22 239.61 77.54 239.15 77.27 238.37C77.17 238.07 77.15 237.73 77.15 237.34ZM87.25 240L91.39 240L91.39 239.51C90.17 239.42 90.12 239.39 90.12 238.53L94.02 234.05L94.02 238.53C94.02 239.39 93.97 239.42 92.75 239.51L92.75 240L96.88 240L96.88 239.51C95.66 239.42 95.61 239.39 95.61 238.53L95.61 233.17C95.61 232.30 95.66 232.27 96.88 232.18L96.88 231.69L92.75 231.69L92.75 232.18C93.92 232.27 94.02 232.30 94.02 233.07L90.12 237.54L90.12 233.17C90.12 232.30 90.17 232.27 91.39 232.18L91.39 231.69L87.25 231.69L87.25 232.18C88.47 232.27 88.53 232.30 88.53 233.17L88.53 238.53C88.53 239.39 88.47 239.42 87.25 239.51ZM102.60 228.69C102.60 229.32 103.27 230.37 105.32 230.37C107.38 230.37 108.05 229.32 108.05 228.69C108.05 227.86 107.70 227.44 107.24 227.44C106.63 227.44 106.36 227.90 106.36 228.17C106.36 228.51 106.75 228.78 106.75 229.18C106.75 229.54 106.09 229.78 105.32 229.78C104.56 229.78 103.90 229.54 103.90 229.18C103.90 228.78 104.29 228.51 104.29 228.17C104.29 227.90 104.02 227.44 103.41 227.44C102.95 227.44 102.60 227.86 102.60 228.69ZM100.51 240L104.65 240L104.65 239.51C103.43 239.42 103.38 239.39 103.38 238.53L107.27 234.05L107.27 238.53C107.27 239.39 107.22 239.42 106.00 239.51L106.00 240L110.14 240L110.14 239.51C108.92 239.42 108.87 239.39 108.87 238.53L108.87 233.17C108.87 232.30 108.92 232.27 110.14 232.18L110.14 231.69L106.00 231.69L106.00 232.18C107.17 232.27 107.27 232.30 107.27 233.07L103.38 237.54L103.38 233.17C103.38 232.30 103.43 232.27 104.65 232.18L104.65 231.69L100.51 231.69L100.51 232.18C101.73 232.27 101.78 232.30 101.78 233.17L101.78 238.53C101.78 239.39 101.73 239.42 100.51 239.51Z" fill="#597d06" style="fill: #597d06"></path></g><g xmlns:name="symbol_mainfill" id="SvgjsG1043" rel="mainfill" name="symbol" transform="translate(84.50404145874273,-3.8099294184640295) scale(0.863538004398606)" fill="#597d06" style="fill: #597d06"><path d="M72.5,40c1.7-1.4,3.2-2.6,4.6-3.8c1.9-1.7,4-2,6.4-1.3c1.1,0.4,1.8,1.3,2,2.6C86,43.1,83.9,47.3,80,51  c-0.7,0.6-1.2,1.3-1.9,1.9c-1,0.8-0.8,1.3,0.2,1.9c3.2,2.1,5.7,4.8,7.5,8.2c1.7,3.3,2.1,6.7,2,10.4c-0.1,3.8-1.9,6.8-4.1,9.4  C81,85.8,77.5,88,74,90c-6.2,3.5-12.9,4.5-19.9,4.5c-0.2,0-0.4,0-0.6,0c-2.9,0.9-5.8,0.3-8.5-0.1c-2.3-0.3-4.7-0.7-7-1.1  c-3.9-0.6-7.6-2-11.3-3.2c-2.2-0.8-4.3-1.9-6.2-3.4c-1.7-1.3-3.8-1.9-5.3-3.7c-2.5-3-4.3-6.4-4.9-10.3c-0.2-1.5,0-3.2,0.7-4.5  c1.5-2.7,1.1-5.4,0.6-8.2c-0.2-0.9-0.4-1.7-0.6-2.6c-0.4-2.2,0.9-3.5,2.4-4.7c0.9-0.7,1.7-1.4,2.5-2.2c2.2-2.2,4.8-2.7,7.8-2.2  c1.2,0.2,2.5,0.1,3.7,0.6c1,0.4,1.3,1.7,1.9,1.8c0.8,0.1,1.7-1,2.7-0.7c1.1,0.4,1.1-0.1,0.9-0.8c-1-3.5-1.7-7.1-2.3-10.7  c-0.4-2.1-0.6-4.3-0.7-6.5c0-0.9,0.7-1.7,1.3-2.3c1.3-1.4,2.8-2.6,4.6-3.3c0.8-0.3,1.6-0.6,2.4-1c1.2-0.6,2.8-0.9,3.5-1.9  c0.7-1-0.5-2.4-0.8-3.7c-0.4-1.6,0.4-2.9,0.8-4.3c0.3-1.2,0.8-2.3,1.6-3.2c1.3-1.5,1.9-3.3,2.5-5.1c0.2-0.5,0.2-1,0.8-1  c0.7,0,0.8,0.6,1,1.1c0.5,1.2,0.4,2.5,0,3.7c-0.5,1.7-0.9,3.4-1.5,5c-0.6,2-0.3,4.1-0.2,6.2c0,0.5,0.1,1.1,0.8,0.8  c0.7-0.3,1.9,0.3,1.9-0.9c-0.1-3.1,1.9-5.3,3.1-7.9c0.9-1.9,1.7-3.9,2-6c0.1-0.7,0.2-1.3-0.3-2C53,5.7,53,4.8,53.7,4.5  c0.7-0.3,1.4,0.2,1.8,1c0.9,2.1,0.8,4.3,0.6,6.4c-0.2,1.8-0.9,3.4-1.7,4.9c-0.8,1.4-0.9,3-1.4,4.5c-0.3,0.9,0.1,1.3,1.2,1.3  c2.8,0,2.7,0,4-2.4c2-4,2.8-8.2,2.9-12.6c0-0.5-0.2-1.2,0.6-1.3c0.7-0.1,1.1,0.4,1.3,1c1.2,3.8,1.5,7.5-0.6,11  c-0.7,1.1-1.2,2.3-1.7,3.6c-0.3,1,0,1.1,0.8,1.3c2,0.6,4.2,0.5,6.2,1.5c1.2,0.6,2.3,1.3,3.6,1.7c0.5,0.1,0.8,0.6,1.1,1.1  c1.1,1.7,2,3.3,1,5.6C72.5,35.1,72.7,37.4,72.5,40z M17.2,66.5L17.2,66.5c1.3,1.6,2.8,3.1,4.5,4.3c1.8,1.2,3.5,2.3,5.2,3.6  c1.6,1.2,3.3,2.4,5,3.6c0.2-2.3,0.1-2.3-1.4-3.6c-2-1.7-4.3-3-6.2-4.9c-2.7-2.7-5.9-4.9-8.9-7.3c-0.6-0.5-1-1.2-1.9-1.3  C13.5,63.7,14.7,65.5,17.2,66.5z M12.7,70.8c-0.5,1-0.6,1.9-0.5,2.8c0.5,4.2,3.3,7,6.3,9.4c4.4,3.5,9.5,5.7,15,7.4  c6.5,2,13.1,2.7,19.7,2.7c3.7,0,7.5-0.4,11.2-1.5c7.2-2.1,13.7-5.1,18.6-11.1c3.6-4.5,3.9-9.3,2.1-14.4c-0.3-0.8-0.1-1.7-0.6-2.5  c-1.8-3.4-4.5-6-7.8-8c-0.5-0.3-1.5-0.6-2.1,0.2c-1.1,1.6-2.4,3-3.6,4.5c-0.9,1.1-1.8,2.4-2.3,3.8c-0.8,2.5-1.3,5.1-1.7,7.7  c-0.1,0.4-0.3,0.7-0.7,0.8c-2.3,0.6-4.2,2.1-6.6,2.6c-5.2,1-10.4,0.7-15.6-0.1c-2-0.3-4.2-1-5-3.2c-2.1-6-3.8-12.2-5.3-18.4  c-0.2-0.8-0.2-1.7-0.9-2.2c-0.6-0.4-1.2,0.5-1.8,0.6c-0.2,0.1-0.4,0.1-0.6,0.1c-0.9,0.1-1.1,0.6-0.9,1.4c0.5,1.6,1.1,3.1,1.3,4.7  c0.3,2.5,0.7,4.9,1.4,7.3c1.8,5.9,1.9,12.1,2.5,18.2c0.1,1.4-0.4,1.7-1.8,1.2c-2.9-1.1-5.4-3-8-4.6C20.8,77.5,16.6,74.5,12.7,70.8z   M34,47c0.5,4.7,2.2,8.9,3,13.2c0,0.3,0.3,0.6,0.7,0.3c0.6-0.4,1.3-0.8,1.7-1.4c1.4-1.8,2.6-1.8,4.1,0c1.5,1.9,3.2,2,5,0.3  c0.4-0.4,0.7-0.8,1.1-1.1c1.8-1.6,2.8-1.4,4.1,0.5c0.7,1,1.5,1.3,2.5,0.6c0.5-0.3,0.9-0.7,1.4-1.1c0.9-0.7,2.1-1.6,3.1-1.4  c2,0.6,3.6-0.2,5.2-0.9c0.4-0.2,1.1-0.7,1.4-0.1c0.3,0.6-0.5,0.7-0.8,0.9c-0.3,0.2-0.6,0.4-0.3,0.7c0.2,0.2,0.3,0.8,0.6,0.5  c0.5-0.5,1.5-0.2,1.7-1.4c0.3-2.5,0.8-5,1.2-7.5c0.3-2,0.3-3.9,1-6.1c-1.2,0.4-3,0.6-2.9,1.2c0.1,1.5-1.3,1.9-1.7,2.1  c-1.6,0.9-3.4,1.1-5.2,0.3c1.1-1.3,3.1,0,4.2-1.6c-0.3,0-0.6,0-0.8,0c-0.3,0-0.7,0.5-0.8-0.2c-0.1-0.6,0.5-0.4,0.8-0.5  c0.4-0.1,0.9,0.2,1.1-0.3c-1.2-1.5-2.6-1.1-3.9-0.2c-2.1,1.4-4.3,2.1-6.6,0.5c-2.1-1.4-2.5-1.4-4.6,0.2c-0.4,0.3-0.8,0.6-1.2,0.8  c-2.1,1.3-4.2,1.1-6-0.5c-0.8-0.7-1.6-0.8-2.4-0.1c-0.5,0.4-1,0.9-1.5,1.2C37.4,47,36,48.4,34,47z M67.6,59.6c-1.5,0.8-3,1.7-4.8,1  c-0.3-0.1-0.8-0.2-0.9,0.4c-0.1,0.6-0.5,0.7-0.9,0.4c-0.3-0.3-0.2-0.7,0.1-1c0.8-0.5,0.7-1,0.1-1.7c-0.6-0.7-1.1-0.5-1.8-0.2  c-0.8,0.5-1.6,1-2.3,1.7c-1.6,1.4-3.2,1.3-4.5-0.4c-1.3-1.6-1.3-1.6-2.6-0.1c-2.6,2.8-5.2,2.9-7.6,0.2c-0.6-0.7-1.3-0.8-2-0.5  c-1.7,0.6-2.8,3.1-2.3,4.8c0.5,1.6,1.1,3.2,1.5,4.8c1,3.2,3.1,4.8,6.3,5c5.2,0.4,10.3,0.5,15.4-1.1c3.8-1.2,5.4-5.1,5.1-8.4  c-1.8,1-3.2,2.6-5.3,3.2c-0.7,0.2-1.4,0.6-1.9,1.1c-0.9,1.1-1.8,1.4-3.6,0.3c1.9,0.3,3-0.9,4.2-1.6c2.2-1.3,4.4-2.5,6.6-3.7  c0.4-0.2,0.7-0.4,0.8-0.9C67.4,61.8,67.9,60.8,67.6,59.6z M48.8,36.1c3.8-0.1,7.5-0.5,11.1-1.3c3.5-0.8,7.1-1.5,10.4-3.2  c0.7-0.4,1.3-0.8,1.3-1.7c0-0.8-0.5-1.3-1.2-1.7c-2.6-1.4-5.1-2.7-8.1-3.2c-2.5-0.4-2.5-0.6-2.5,2c0,0.1,0,0.2,0,0.3  c0,0.6,0.1,1.2-0.9,1.4c-0.9,0.2-1.3-0.2-1.5-0.9c-0.2-0.6-0.5-1.1-0.5-1.7c0.2-1.9-0.6-2.3-2.3-2c-0.3,0.1-0.6,0-1,0  c-0.7-0.1-1.1,0.2-1,1c0.2,1-0.3,2-0.3,3c-0.1,0.6-0.7,1-0.9,0.6c-0.7-1.1-2.6-1.3-2.4-3.1c0-0.4,0-1.2-1-1.2  c-1.8,0-3.1,1.5-2.7,3.3c0.2,0.8,0.5,1.6-0.3,1.9c-0.8,0.3-1.1-0.8-1.6-1.3c-0.1-0.1-0.1-0.3-0.1-0.4c-0.1-1.9-1.1-1.9-2.5-1.3  c-0.2,0.1-0.5,0-0.8,0.1c-2.9,1.1-5.9,2.3-7.9,4.9c-1,1.3-0.5,2.5,1.1,2.8C38.4,35.6,43.7,35.9,48.8,36.1z M31.8,35.6  c-0.1,2,0.6,3.7,0.7,5.5c0.1,2,1.1,3.6,2.7,4.9c0.5,0.4,0.8,0.4,1.4,0.1c1.2-0.7,2.4-1.6,3.5-2.4c1.1-0.8,3.2-0.6,3.9,0.5  c0.6,1,1.4,1,2.3,0.8c1.3-0.2,2.4-1,3.4-1.7c2.3-1.6,3.4-1.7,5.7-0.1c1.3,0.9,2.5,1.4,4,0.4c0.7-0.5,1.4-1,2.1-1.4  c0.9-0.6,2.1-1.1,3-0.5c1.8,1.2,3.3,0.5,5.1,0.1c1.9-0.5,1.5-1.7,1.5-2.8c0-0.5,0.2-1.1-0.3-1.5c-0.8-0.5-0.8-0.5,0.2-1.1  c0.4-0.2,0.3-0.5,0.3-0.8c0-0.4-0.2-0.3-0.5-0.3c-2.4,0.4-4.6,1.6-7,2c-1.1,0.2-2.1,0.2-3-0.8c-0.2-0.3-0.5-0.2-0.7-0.1  c-0.4,0.2-0.9,0.2-1.4,0.3c-4.8,0.6-9.7,0.8-14.6,0.7C39.8,37.4,35.8,36.6,31.8,35.6z M20.4,63.8c4,3.3,7.2,7.2,11.9,9.4  c-0.3-3.3-0.9-6.4-1.7-9.5c-0.9-3.8-1.9-7.6-2.8-11.4c-0.1-0.4-0.4-0.7-0.8-0.6c-0.8,0.3-1.6,0.3-2.4,0.3c-0.6,0-0.7,0.5-0.7,0.9  c0,0.4-0.2,0.9,0.2,1.2c0.4,0.3,0.6-0.3,0.9-0.5c1.1-0.7,1.7-0.2,1.8,0.9c0.1,1.3,0.5,2.6,0.7,3.9c0.3,1.8-1.7,4.6-3.4,4.8  C23,63.6,21.9,63.7,20.4,63.8z M14.4,67c-0.4,2.4,0.2,4.2,2.4,5.3c0.2,0.1,0.4,0.3,0.6,0.5c4.3,3.9,9.2,7.1,14.3,9.9  c1.1,0.6,1.4,0.4,1.3-0.8c0-0.6-0.2-1.2-0.7-1.5c-1.8-1.3-3.6-2.5-5.3-3.8c-0.8-0.7-1,0.6-1.6,0.3c-1.2-0.4,0.7-1.2-0.2-1.6  c-0.9-0.4-1.3-1.8-2.7-0.9c-0.4,0.3-0.7-0.3-0.8-0.7c-0.1-1.8-1.7-1.9-2.7-2.9c-0.3,0.7,0.5,1.2-0.1,1.7c-1-0.5-1.6-1.1-1.3-2.3  c0.1-0.3,0.1-0.4-0.2-0.6C16.5,68.7,15.5,67.8,14.4,67z M70.3,55.4c3.4-3.4,6.3-6.9,8.9-10.6c0.6-0.9,1.1-1.8,1.2-2.9  c0-0.5,0-0.9-0.5-1.3c-0.5-0.4-0.9-0.1-1.3,0.2c-0.7,0.6-1.4,1.3-2.2,1.9c-1.5,1.2-2.6,2.9-4.1,4c-1.1,0.7-1.3,1.6-1.3,2.5  C70.9,51.2,70.6,53.2,70.3,55.4z M71.9,44.8c0.7-0.1,0.8-0.7,1.1-1.1c1.3-1.7,2.8-3.2,4.6-4.4c1.1-0.8,2.3-0.7,3.5-0.3  c1,0.3,1.1,1.3,1,2.2c-0.3,2.3-1.2,4.5-2.5,6.4c-2.3,3.2-5.3,5.8-7.8,8.8c-0.8,0.9-1.6,1.8-2.2,2.9c-0.2,0.4-0.4,0.9,0,1.2  c0.4,0.3,0.7-0.2,0.9-0.4c0.8-0.7,1.3-1.7,1.9-2.5c1.1-1.7,2.4-3.2,3.9-4.6c1.2-1.1,2.4-2.1,3.5-3.2c1.2-1.3,1.4-3.1,2.4-4.2  c1.7-1.9,1.5-4.1,1.5-6.3c0-2.3-2-3.3-3.9-2.2c-2.2,1.3-4.4,2.7-6,4.6C72.9,42.5,71.7,43.3,71.9,44.8z M46.4,10.1  c-1,2.5-3.2,4.3-3.8,7c-0.7,2.9,1,5.2,1.5,7.8c1-2.5-0.4-5.1,0.2-7.6C44.9,15,45.9,12.6,46.4,10.1z M25.3,50.5  c-0.9-0.3-1.5-0.1-2-0.4c-1.7-1-3.5-0.4-4.8,0.3c-1.9,1.1-3.4,2.8-5,4.3c-0.4,0.3-1,1-0.4,1.5c0.4,0.3,1-0.3,1.3-0.6  c1.3-1.9,3.1-2.8,5.2-3.6C21.2,51.1,23,50.7,25.3,50.5z M16.9,61.1c0.3-1,0.6-1.9,0.4-3c-0.2-1.1-0.2-2.3,1.1-2.9  c0.4-0.2,0.9-0.5,0.6-0.9c-0.3-0.4-0.9-0.4-1.3,0c-1.3,1.3-2.9,2.4-3.7,4c-0.3,0.7,1.7,1.7,2.6,2.7C16.6,61.1,16.7,61.1,16.9,61.1z   M54.7,12.2c-0.1-0.1-0.3-0.1-0.4-0.2c-1.2,2.5-2.5,4.9-3.6,7.4c-1,2.2-0.8,4.5,0.3,6.7C50.8,21.1,52.9,16.7,54.7,12.2z M20.7,62.1  c2.2,0.2,3.7-0.2,4.6-1.9c0.2-0.4,0.5-0.9,0.1-1.3c-0.4-0.4-0.8,0-1.1,0.3c-1.4,0.9-3,1.3-4.6,1.1c-0.6-0.1-1,0-1.1,0.6  c-0.1,0.7,0.3,1.1,0.8,1.2C20,62.2,20.6,62.1,20.7,62.1z M58.2,26.3c0.6-2.8,1.4-5.5,2.7-8c1-2,2.1-4.3,1.1-6.7  c0.1,2.8-0.8,5.4-2.2,7.8c-1,1.7-1.5,3.6-2,5.5C57.7,25.3,57.7,25.8,58.2,26.3z M71.5,33.2c-2.9,1.2-6.1,1.8-9,3.2  C65.8,36.4,68.8,35.1,71.5,33.2z M24.7,56.1c-0.8,0.3-1.6,0.7-2.4,0.8c-0.9,0.2-1.8,0.2-2.7,0.4c-0.3,0.1-0.9-0.6-1,0.2  c-0.1,0.6,0.5,0.8,0.9,1C21.1,59.1,23.9,57.9,24.7,56.1z M20.7,54.3c0,0.5-0.2,1,0.5,1.1c0.6,0,1-0.4,1.1-0.9  c0.1-0.6-0.3-1.1-0.8-1.2C20.9,53.1,20.8,53.8,20.7,54.3z" fill="#597d06" style="fill: #597d06"></path><path d="M66.6,88.5c-1.6,0-3.1-0.3-4.7,0c-1.9,0.3-3.3-1.1-4.9-1.7c-0.3-0.1-0.6-0.5-0.8-0.4c-2.7,0.4-4.4-0.8-5.4-3.2  c-0.1-0.2-0.1-0.4-0.4-0.3c-1.3,0.4-1.8-0.6-2.1-1.5c-0.3-1-0.5-2,0.4-3c0.8-0.9,1.4-1.8,2.7-2c0.3,0,0.5-0.2,0.7,0  c1.3,1.1,3,0.5,4.4,0.8c2.8,0.8,5.4-0.7,8.1-0.3c0.7,0.1,0.9-0.5,1.4-0.7c2.1-0.9,3.8-2.2,5.2-4c0.4-0.5,0.7-0.9,0.9-1.5  c0.3-1.5,1.1-2.6,2.5-3.3c0.7-0.3,0.8-0.9,1-1.6c0.3-1.1,0.9-2.1,2.3-2.1c1.2,0.1,2.3,1.3,2.2,2.7c-0.1,1.4,0,2.7,0.4,4.1  c0.3,1.1-0.4,2.5-1,3.6C79,75,78.9,75.7,79,76.5c0.2,1.9-0.6,3.3-2,4.5c-0.8,0.7-1.5,1.5-1.9,2.5C73.5,87.1,70.4,88.5,66.6,88.5z   M66.8,87.2c2.1,0.2,4-0.8,5.6-2.3c0.8-0.8,1.4-1.7,1.2-2.9c-0.4-2-1.6-3.8-2.6-5.6c-0.3-0.6-0.7-1-1.4-0.4  c-1.1,0.8-2.2,1.6-3.5,2.3c-0.5,0.3-0.7,0.9-0.7,1.5c0.2,1.9-0.4,3.7-0.5,5.5C64.8,87.2,64.7,87.2,66.8,87.2z M63.8,80.8  c-0.1-2.3-0.3-2.5-2.1-2.1c-0.5,0.1-1.1,0.1-1.6,0.3c-0.6,0.2-1.3,0.2-1.5,1c-0.3,1.3-0.7,2.6-1.1,4c-0.2,0.7-0.2,1.5,0.5,1.9  c1,0.6,2.1,1.2,3.4,1.2c1,0,1.6-0.3,1.7-1.4C63.4,83.8,63.7,82.1,63.8,80.8z M77.3,77.2c0-2.4-2.8-4.9-4.4-4.5  c-0.8,0.2-1.5,1-1.1,1.5c1.4,1.8,1.8,4,3.1,5.9c0.3,0.5,0.6,0.5,0.9,0C76.4,79,77.3,77.9,77.3,77.2z M57.3,79.3  c0-0.4-0.1-0.7-0.6-0.7c-0.8,0-1.7,0-2.1,0.8c-0.5,1-1.1,1.8-1.9,2.5c-0.6,0.4-0.6,1.1-0.4,1.7c0.4,1,1.5,1.1,2.4,1.3  c0.5,0.1,1.1-0.1,1.3-0.7C56.4,82.5,56.9,80.9,57.3,79.3z M75.9,68.9c-1.2-0.2-1.9,0.6-2.1,1.6c-0.3,1.1,0.9,1,1.4,1.3  c0.6,0.3,1.4,0.5,2,1c0.6,0.5,0.9,0.3,1.2-0.4C79.2,70.5,78.2,69,75.9,68.9z M53.1,79.3c-1.3,0.2-0.6-1.5-1.7-1.4  c-1.2,0.1-1.8,1.2-1.9,2.2c-0.1,0.4,0,1.4,1,1.2C51.5,81.2,52.4,80.7,53.1,79.3z M78.6,66.3c-0.2-0.4-0.5-0.9-1-0.8  c-0.6,0.1-0.6,0.6-0.6,1.1c0,0.5,0.2,0.8,0.8,0.7C78.3,67.2,78.4,66.8,78.6,66.3z" fill="#597d06" style="fill: #597d06"></path><path d="M66.6,48.3c-1-0.1-1.6,0.8-2.5,0.9c1.1,0.3,2.1,0.2,2.9-0.7c0.3-0.4,0.9-0.5,1.2,0c0.4,0.6-0.1,0.9-0.5,1.1  c-1,0.4-1.8,1.1-3.2,0.6c-0.7-0.3-1.9,0.4-2.8,0.7c-0.4,0.1-0.8,0.2-1.3,0c0.4-1.2,1.7-0.6,2.4-1.1c0.2-0.2,0.9,0.1,0.7-0.5  c-0.1-0.5-0.5-0.5-1-0.3c-0.7,0.3-1.4,0.6-2.1,0.5c-0.3,0-0.5-0.2-0.5-0.5c0-0.1,0.3-0.3,0.5-0.3c0.9-0.2,1.9-0.4,2.8-0.6  c0.2,0,0.6,0,0.6,0c0.1,1.4,0.6,0.4,1,0.2C65.3,47.7,65.9,47.1,66.6,48.3z" fill="#597d06" style="fill: #597d06"></path><path d="M64.7,53.2c0.3,0.7,1.6-0.1,1.4,0.9c-0.2,0.7-1.1,0.7-1.8,0.7c-0.7,0-1.5-0.6-1.6-0.9c-0.2-0.7,0.7-0.8,1.2-1  c1.6-0.4,2.9-1.5,4.9-1.3C67.6,52.9,65.8,52.2,64.7,53.2z" fill="#597d06" style="fill: #597d06"></path><path d="M64.9,50.9c-1.1,1.5-2.4,2-3.9,1.6C62,51.3,63.7,51.8,64.9,50.9z" fill="#597d06" style="fill: #597d06"></path><path d="M61.4,69.9c1.1-1.1,2.9-0.3,3.9-1.6c0.3,0.5,0.1,0.9-0.2,1.1c-1.7,1-3.1,2.7-5.3,2.7c-0.8,0-1.4,0.8-2.2,0.8  c-0.2,0-0.5,0.3-0.6-0.1c-0.1-0.2-0.1-0.5,0-0.8c0.1-0.4,0.6-0.3,0.8-0.2c0.7,0.1,4.2-0.9,4.4-1.4C62.5,69.4,61.5,70.4,61.4,69.9z" fill="#597d06" style="fill: #597d06"></path><path d="M66.1,61.9c-0.2,0.6-0.7,0.7-1.1,0.8c-1.9,0.4-3.6,1.1-5,2.5c-0.4,0.3-0.9,0.3-1.1,0c-0.3-0.5,0.1-0.7,0.5-0.9  c1.9-0.9,3.7-2,5.7-2.7C65.4,61.5,65.9,61.3,66.1,61.9z" fill="#597d06" style="fill: #597d06"></path><path d="M68.3,38c-0.2,0.9-0.9,0.5-1.1,1c0.4,0.3,0.8,0.2,1.2,0.2c0.4-0.1,0.8-0.3,0.9,0.2c0.2,0.6-0.4,0.7-0.8,0.7  c-2.2,0.4-4.4,0.7-6.7,1.1c0.2-1.1,0.9-1.2,1.6-1.3c0.7-0.1,1.5,0.5,2.4-0.3c-1.3-0.4-2.4-0.3-3.5,0c-0.3,0.1-0.7,0.2-0.7-0.3  c0-0.4,0.3-0.6,0.6-0.5C64.3,39.4,66.2,38.5,68.3,38z" fill="#597d06" style="fill: #597d06"></path><path d="M17.2,66.5c0.3-0.4-0.2-1.1,0.4-1.4c0.3-0.1,0.7-0.1,0.9,0.2c0.3,0.5,1.1,0.9,0.5,1.6C18.2,67.8,17.7,66.9,17.2,66.5  C17.2,66.5,17.2,66.5,17.2,66.5z" fill="#597d06" style="fill: #597d06"></path></g> </g></svg>
