<?xml version="1.0" standalone="no"?>
<!DOCTYPE svg PUBLIC "-//W3C//DTD SVG 20010904//EN"
 "http://www.w3.org/TR/2001/REC-SVG-20010904/DTD/svg10.dtd">
<svg version="1.0" xmlns="http://www.w3.org/2000/svg"
 width="712.000000pt" height="712.000000pt" viewBox="0 0 712.000000 712.000000"
 preserveAspectRatio="xMidYMid meet">
<metadata>
Created by potrace 1.14, written by Peter Selinger 2001-2017
</metadata>
<g transform="translate(0.000000,712.000000) scale(0.100000,-0.100000)"
fill="#000000" stroke="none">
<path d="M3903 7106 c-36 -26 -38 -68 -8 -132 23 -49 26 -65 21 -123 -7 -85
-11 -109 -42 -211 -49 -161 -147 -374 -255 -555 -9 -16 -26 -52 -37 -80 -10
-27 -22 -59 -27 -70 -16 -40 -25 -87 -30 -170 -3 -38 -11 -75 -17 -81 -7 -7
-38 -15 -68 -18 -30 -2 -65 -7 -77 -10 -12 -2 -27 2 -33 9 -20 24 -32 365 -17
463 3 23 24 99 46 170 116 371 130 464 91 582 -28 85 -66 118 -108 91 -7 -4
-34 -68 -60 -142 -54 -153 -103 -251 -165 -326 -59 -72 -89 -135 -143 -303
-57 -179 -63 -274 -20 -359 33 -64 58 -154 52 -185 -6 -32 -38 -68 -86 -98
-21 -13 -173 -80 -190 -84 -3 0 -34 -14 -70 -31 -36 -17 -83 -36 -105 -44 -22
-7 -47 -19 -56 -26 -8 -7 -21 -13 -27 -13 -25 0 -169 -110 -252 -193 -108
-108 -139 -164 -134 -246 9 -163 17 -258 29 -338 3 -18 7 -50 10 -70 3 -21 8
-49 11 -63 2 -14 7 -38 9 -55 8 -48 15 -88 19 -111 2 -12 7 -37 10 -55 19
-123 77 -384 129 -589 29 -113 25 -122 -50 -107 -44 9 -55 7 -122 -22 -45 -20
-81 -30 -95 -27 -11 3 -37 27 -56 54 -42 56 -55 68 -97 87 -36 15 -75 23 -148
30 -64 6 -117 12 -185 21 -169 23 -320 -10 -445 -97 -22 -15 -74 -59 -115 -99
-41 -40 -95 -88 -120 -108 -78 -64 -171 -156 -195 -193 -44 -68 -61 -168 -41
-244 18 -73 49 -235 61 -315 29 -201 13 -343 -55 -490 -80 -173 -89 -309 -35
-521 40 -154 112 -322 191 -447 19 -29 34 -56 34 -61 0 -5 3 -11 8 -13 4 -2
33 -38 65 -81 93 -124 139 -163 337 -280 52 -31 131 -83 175 -116 101 -77 253
-161 375 -207 52 -20 104 -40 115 -45 30 -12 119 -39 128 -39 4 0 21 -7 37
-15 17 -9 30 -13 30 -10 0 3 9 1 20 -5 25 -13 285 -93 370 -114 95 -23 162
-37 190 -41 14 -2 77 -13 142 -24 64 -12 136 -24 160 -27 53 -8 67 -10 148
-23 36 -6 81 -13 100 -15 19 -3 67 -10 105 -16 113 -19 123 -20 270 -25 106
-3 157 -1 210 12 39 8 111 17 160 18 139 4 358 15 385 20 14 2 52 6 85 9 33 3
69 8 80 10 11 2 43 7 70 10 28 4 70 12 95 17 25 6 56 13 70 15 119 23 352 98
490 159 227 100 596 332 780 490 55 48 193 187 220 224 14 18 35 45 46 59 75
95 180 293 199 377 3 11 11 46 19 77 44 177 37 430 -18 716 -8 40 -65 199 -91
254 -130 275 -311 485 -587 681 -38 26 -68 52 -68 57 0 4 -3 15 -6 24 -6 15
23 48 217 244 72 74 157 173 189 222 8 12 22 32 31 44 24 32 111 206 103 206
-3 0 -2 6 3 13 11 13 45 112 48 137 2 18 16 88 23 115 2 11 6 85 7 163 2 119
-1 152 -16 194 -25 68 -63 114 -119 143 -44 22 -159 38 -229 32 -90 -8 -127
-20 -198 -64 -53 -33 -84 -57 -197 -157 -11 -10 -41 -35 -66 -55 -25 -20 -47
-38 -50 -41 -27 -29 -118 -99 -122 -94 -3 3 -4 33 -2 67 2 34 6 100 8 147 3
47 6 87 7 90 1 3 1 9 0 14 -4 18 31 160 54 221 45 117 38 215 -23 330 -74 139
-105 179 -150 190 -14 3 -101 44 -192 89 -92 45 -173 83 -181 84 -8 1 -45 8
-84 16 -38 9 -90 18 -115 21 -25 4 -53 9 -62 11 -10 3 -30 7 -45 10 -55 9
-123 36 -132 52 -6 10 -3 34 6 66 24 80 53 145 148 321 106 199 126 426 60
704 -39 161 -62 200 -120 201 -54 0 -59 -10 -61 -117 -3 -99 -10 -204 -20
-278 -8 -66 -35 -219 -39 -225 -2 -4 -6 -17 -8 -31 -3 -13 -10 -44 -17 -69 -7
-25 -13 -49 -15 -55 -1 -5 -4 -17 -7 -25 -3 -8 -13 -37 -23 -65 -9 -27 -20
-59 -25 -70 -5 -11 -19 -45 -32 -75 -35 -84 -95 -192 -123 -222 -14 -15 -42
-32 -62 -37 -49 -14 -199 -14 -224 0 -32 16 -41 53 -25 102 15 47 34 121 40
152 1 11 6 27 9 35 3 8 8 28 12 44 3 16 25 70 49 120 68 142 84 185 106 271
35 133 37 401 6 510 -2 6 -6 24 -11 40 -12 44 -40 97 -63 118 -28 25 -82 32
-109 13z m-569 -521 c-17 -66 -72 -251 -81 -275 -4 -8 -7 -17 -8 -20 0 -3 -9
-32 -19 -65 -10 -33 -20 -67 -22 -75 -2 -8 -8 -33 -13 -55 -10 -40 -7 -209 5
-295 10 -75 10 -182 0 -227 -9 -41 -24 -57 -28 -30 -2 20 -5 31 -11 47 -18 49
-62 187 -82 260 -18 65 -23 105 -21 170 5 153 32 219 177 435 37 55 77 121 90
147 12 26 24 46 25 45 2 -2 -4 -30 -12 -62z m1242 -97 c13 -70 6 -171 -17
-244 -17 -58 -106 -261 -153 -354 -32 -61 -136 -416 -136 -462 0 -10 -4 -18
-10 -18 -14 0 -30 35 -30 67 0 27 60 255 79 298 44 103 61 139 94 200 94 171
151 370 151 523 0 46 13 40 22 -10z m-593 6 c-2 -21 -65 -184 -88 -227 -8 -16
-15 -36 -15 -46 0 -9 -4 -21 -9 -26 -7 -9 -75 -200 -86 -245 -2 -8 -11 -40
-20 -70 -33 -118 -53 -254 -57 -373 -1 -42 -5 -74 -9 -70 -4 5 -16 35 -27 68
-52 151 -47 291 14 437 31 74 111 247 125 268 5 8 13 24 18 35 56 128 134 276
144 272 7 -2 11 -12 10 -23z m153 -947 c13 -15 24 -36 25 -45 0 -9 2 -44 4
-77 3 -63 35 -161 63 -194 19 -22 52 -28 99 -17 48 11 55 27 58 134 2 53 4
107 4 119 2 42 28 55 95 48 169 -18 315 -64 525 -166 189 -92 245 -128 267
-171 29 -57 15 -126 -35 -165 -18 -15 -196 -103 -206 -103 -4 0 -21 -6 -38
-14 -51 -23 -259 -86 -327 -100 -14 -3 -34 -7 -45 -10 -59 -16 -382 -87 -413
-92 -20 -2 -59 -9 -87 -14 -27 -5 -75 -12 -105 -15 -30 -3 -71 -7 -90 -10
-208 -26 -586 -26 -855 0 -22 2 -74 7 -115 10 -41 4 -86 9 -100 10 -14 2 -45
6 -70 9 -107 13 -138 17 -195 27 -33 7 -69 13 -80 14 -31 5 -156 32 -200 44
-23 6 -54 25 -70 41 -25 26 -30 39 -28 75 3 91 129 224 316 333 48 29 90 52
92 52 2 0 33 13 69 29 82 38 268 98 289 93 4 -1 7 2 7 7 0 18 85 -7 99 -29 15
-23 17 -29 25 -87 6 -39 64 -128 91 -141 28 -13 63 2 74 32 10 24 6 70 -8 110
-7 20 -6 84 1 116 11 45 70 113 114 130 41 16 99 20 126 9 31 -13 41 -35 42
-99 2 -61 27 -98 109 -160 38 -28 71 -58 74 -66 16 -43 72 12 74 73 0 15 6 55
13 88 7 33 11 73 9 89 -7 46 6 96 27 104 11 4 72 7 135 7 115 0 117 0 141 -28z
m1104 -721 c-42 -40 -255 -145 -355 -175 -69 -20 -97 -27 -165 -36 -86 -12
-100 -13 -104 -6 -6 9 171 79 309 122 55 18 147 49 205 69 120 43 130 45 110
26z m30 -170 c0 -28 -6 -38 -40 -60 -48 -31 -50 -45 -11 -71 35 -23 40 -46 37
-171 -3 -134 -18 -148 -201 -194 -132 -33 -189 -30 -280 14 -40 20 -84 36 -97
36 -53 0 -110 -27 -232 -108 -70 -47 -144 -91 -163 -97 -66 -23 -124 -6 -243
70 -100 64 -128 77 -191 82 -52 5 -66 2 -131 -30 -40 -20 -104 -59 -143 -86
-123 -87 -220 -124 -305 -116 -39 4 -52 12 -100 63 -43 46 -66 62 -103 72 -79
21 -141 8 -220 -47 -256 -180 -292 -200 -327 -182 -8 4 -36 27 -61 51 -110
103 -163 210 -174 349 -2 30 -14 106 -25 169 -12 63 -24 151 -27 194 -4 70 -3
78 11 73 27 -11 290 -72 349 -82 17 -3 59 -10 92 -16 33 -6 78 -13 100 -15 22
-2 56 -6 75 -9 174 -25 785 -25 1080 0 290 25 400 38 457 56 34 11 73 5 73
-11 0 -5 20 -21 44 -35 73 -43 189 -33 371 32 39 13 113 38 165 55 52 16 106
34 120 38 14 5 42 9 63 9 36 1 37 0 37 -33z m841 -84 c37 -14 78 -58 97 -101
16 -39 24 -267 10 -331 -4 -19 -9 -49 -12 -66 -7 -39 -50 -136 -68 -155 -19
-19 -71 -98 -85 -129 -99 -212 -90 -199 -206 -310 -262 -249 -356 -347 -417
-435 -19 -27 -38 -52 -41 -55 -3 -3 -35 -50 -72 -105 -102 -154 -151 -200
-181 -169 -18 18 -15 47 9 95 18 34 71 114 90 135 6 6 30 35 55 65 57 68 194
222 240 270 361 376 501 592 555 859 29 141 20 211 -29 244 -60 38 -183 50
-248 23 -39 -16 -153 -102 -222 -166 -58 -55 -196 -216 -196 -229 0 -15 -48
-62 -63 -62 -18 0 -16 41 5 91 20 47 244 270 354 351 99 75 252 168 298 183
37 12 91 11 127 -3z m-169 -312 c30 -30 30 -33 24 -98 -7 -76 -46 -160 -117
-260 -24 -33 -51 -70 -59 -82 -68 -100 -348 -446 -424 -525 -17 -18 -58 -61
-91 -97 -55 -58 -97 -95 -82 -72 3 5 8 36 12 69 3 33 8 69 10 80 4 18 8 50 20
170 2 17 7 73 10 125 8 119 27 165 91 216 51 40 80 69 224 220 47 49 114 114
149 144 35 30 69 59 75 65 41 39 93 75 109 75 10 0 32 -14 49 -30z m-1201
-190 c50 -26 89 -78 62 -81 -5 0 -30 -2 -57 -4 -63 -5 -76 -10 -76 -33 0 -27
22 -43 40 -32 8 6 29 10 47 10 24 0 31 -4 27 -14 -10 -26 -87 -54 -166 -59
-71 -5 -129 -24 -142 -46 -9 -14 84 -42 150 -45 79 -4 135 9 229 54 113 53
145 89 145 160 0 24 7 33 38 48 41 21 172 56 179 48 3 -3 0 -20 -6 -38 -5 -18
-15 -61 -21 -95 -5 -35 -12 -75 -15 -90 -3 -16 -7 -60 -10 -99 -3 -38 -8 -81
-11 -95 -3 -13 -7 -37 -9 -54 -4 -34 -14 -97 -21 -135 -2 -14 -7 -41 -9 -60
-3 -19 -10 -60 -15 -90 -5 -30 -12 -71 -15 -90 -3 -19 -8 -46 -10 -60 -3 -14
-8 -45 -10 -70 -12 -111 -22 -137 -63 -155 -21 -8 -49 -22 -63 -29 -30 -16
-38 -12 -58 26 -16 32 -11 43 35 64 36 17 59 47 49 64 -18 29 -43 29 -101 1
-184 -89 -292 -112 -391 -82 -56 17 -116 -1 -193 -58 -47 -35 -134 -104 -140
-113 -3 -3 -27 -17 -54 -31 -75 -38 -111 -23 -187 80 -103 139 -178 132 -345
-29 -98 -95 -154 -129 -222 -133 -66 -4 -123 29 -202 117 -69 75 -130 112
-175 104 -37 -7 -89 -41 -118 -79 -14 -17 -33 -41 -43 -53 -21 -23 -122 -94
-134 -94 -14 0 -28 25 -34 61 -3 20 -8 42 -10 50 -3 8 -7 25 -10 39 -2 14 -24
104 -49 200 -76 289 -109 423 -114 455 -2 17 -8 46 -13 65 -5 19 -11 60 -15
90 -3 30 -8 67 -11 82 l-5 27 41 -20 c48 -23 117 -27 162 -8 53 21 210 120
251 159 117 107 163 114 255 37 76 -64 167 -99 252 -98 47 0 161 36 193 61 14
11 28 20 31 20 4 0 39 24 79 54 154 115 184 116 347 10 147 -96 292 -94 450 6
36 22 73 43 83 47 9 3 17 9 17 14 0 5 9 9 20 9 11 0 20 5 20 11 0 5 4 8 8 5 4
-2 14 -1 21 3 18 11 83 6 112 -9z m-3204 -526 c64 -26 82 -30 146 -36 45 -4
30 -15 -30 -21 -32 -4 -71 -10 -88 -13 -16 -4 -37 -8 -45 -9 -8 -1 -22 -4 -30
-7 -8 -3 -40 -13 -70 -23 -30 -10 -68 -25 -85 -34 -16 -9 -57 -28 -90 -41
-124 -49 -225 -116 -295 -194 -114 -126 -134 -140 -164 -111 -34 34 -20 56
128 202 236 232 351 303 502 311 39 2 70 -4 121 -24z m789 -122 c21 -18 40
-64 50 -119 3 -15 10 -48 15 -73 6 -25 12 -52 14 -60 2 -8 31 -123 65 -255 34
-132 63 -248 65 -258 2 -9 6 -21 9 -25 3 -5 7 -21 10 -37 5 -28 12 -53 56
-200 12 -38 23 -77 25 -85 10 -41 83 -273 128 -410 43 -130 56 -154 109 -208
70 -71 173 -111 358 -137 19 -3 49 -7 65 -10 17 -3 57 -7 90 -11 33 -4 74 -8
90 -10 312 -36 764 -14 963 48 36 11 109 41 162 65 156 74 212 99 266 117 60
20 73 43 89 159 8 59 27 168 40 223 8 34 16 73 19 85 20 95 55 205 88 278 19
43 93 165 113 187 13 15 21 25 129 159 48 61 96 119 105 130 9 11 32 42 50 68
78 114 130 105 351 -63 115 -87 233 -208 315 -323 25 -34 48 -67 52 -72 50
-69 91 -163 98 -225 3 -30 17 -89 30 -130 13 -41 26 -87 29 -102 3 -15 7 -31
9 -35 5 -8 16 -76 23 -143 18 -164 0 -344 -48 -475 -41 -112 -136 -281 -193
-345 -13 -14 -44 -50 -70 -80 -267 -310 -661 -553 -1184 -730 -67 -23 -130
-43 -139 -46 -9 -2 -65 -17 -124 -33 -60 -16 -123 -32 -140 -35 -18 -2 -62
-10 -98 -16 -94 -17 -118 -20 -190 -26 -36 -2 -83 -7 -105 -9 -49 -5 -466 -6
-555 -1 -91 5 -296 23 -370 32 -55 6 -244 34 -285 41 -16 3 -39 7 -50 8 -212
33 -681 176 -920 280 -180 78 -466 227 -473 247 -2 4 -9 8 -16 8 -7 0 -21 9
-31 20 -10 11 -23 20 -30 20 -7 0 -20 9 -30 20 -10 11 -22 20 -26 20 -5 0 -17
7 -26 15 -10 8 -47 38 -83 67 -257 209 -390 375 -458 573 -26 79 -33 114 -37
208 -3 72 0 93 30 176 4 11 9 10 23 -5 22 -24 109 -104 187 -171 57 -49 70
-60 126 -107 111 -93 359 -273 559 -406 373 -249 477 -312 613 -375 102 -47
148 -54 177 -25 21 21 22 28 16 139 -4 64 -9 129 -11 145 -2 16 -7 70 -10 120
-4 50 -8 107 -10 126 -2 19 -6 73 -10 120 -3 47 -7 101 -10 120 -2 19 -7 60
-11 90 -3 30 -8 69 -10 85 -2 17 -6 50 -9 75 -4 39 -21 139 -40 233 -3 15 -7
37 -9 50 -2 12 -23 94 -46 182 -40 151 -74 306 -86 385 -3 19 -9 58 -14 85 -5
28 -11 75 -14 105 -8 82 -41 228 -63 280 -8 19 -9 22 -31 100 -27 93 -14 123
58 136 45 8 85 24 110 44 31 24 59 25 86 2z m-401 -87 c9 -30 17 -63 18 -75 1
-11 5 -20 10 -20 4 0 6 -4 3 -8 -2 -4 17 -96 45 -202 27 -107 51 -208 54 -225
3 -16 11 -48 16 -70 6 -22 13 -47 14 -56 3 -15 28 -118 71 -294 8 -33 16 -71
19 -85 5 -27 12 -60 21 -100 3 -14 7 -34 9 -45 2 -11 8 -45 14 -75 9 -48 17
-96 26 -165 2 -11 6 -42 9 -70 4 -27 9 -67 11 -88 5 -36 4 -38 -18 -32 -60 18
-260 154 -387 264 -80 69 -243 219 -365 336 -23 22 -64 59 -91 83 -28 24 -42
42 -34 43 135 9 234 29 322 66 86 36 194 193 205 297 4 43 -7 126 -32 236 -3
14 -10 59 -15 100 -18 137 -74 165 -163 82 -22 -21 -31 -24 -45 -15 -13 8 -17
24 -16 72 1 68 9 82 51 86 15 2 59 6 97 9 38 4 76 10 85 15 27 16 50 -7 66
-64z m-444 -88 c10 -12 18 -34 19 -49 0 -51 -70 -103 -109 -79 -25 16 -18 111
12 149 14 18 55 7 78 -21z m-250 -37 c34 -19 23 -48 -35 -85 -77 -49 -86 -74
-84 -231 0 -71 -1 -136 -4 -144 -3 -8 -9 -28 -13 -45 -11 -42 -23 -46 -53 -16
-15 14 -50 44 -77 66 -71 57 -105 93 -105 111 0 44 88 148 248 297 63 57 86
66 123 47z m434 -187 c-82 -130 -294 -204 -405 -142 -22 13 -40 26 -40 30 0 4
-3 14 -6 22 -3 8 2 22 11 31 13 12 21 14 37 5 11 -6 30 -8 41 -5 12 3 49 8 82
11 33 3 67 8 75 10 8 3 32 7 52 10 21 4 63 17 95 30 74 31 79 31 58 -2z m2816
-159 c21 -18 49 -72 49 -93 0 -5 -15 -26 -34 -46 -44 -47 -40 -95 9 -95 17 0
28 10 42 37 19 39 40 47 82 31 75 -29 171 -14 289 46 l72 36 0 -52 c-1 -57
-30 -200 -48 -235 -7 -11 -42 -38 -79 -59 -38 -21 -84 -46 -103 -57 -19 -11
-55 -31 -80 -45 -105 -58 -271 -158 -357 -214 -105 -69 -150 -87 -210 -84 -50
1 -41 -12 25 -38 80 -30 128 -17 197 54 44 46 77 65 187 109 75 30 119 57 248
152 86 64 117 82 122 72 12 -24 -7 -201 -28 -263 -55 -163 -155 -285 -291
-354 -49 -24 -220 -75 -308 -91 -22 -4 -49 -9 -60 -11 -21 -4 -64 -10 -160
-21 -71 -9 -532 -9 -661 0 -150 10 -204 22 -293 65 -118 56 -210 176 -257 332
-14 47 -48 157 -76 245 -65 203 -66 259 -6 378 22 44 92 115 128 129 78 31
119 17 198 -67 81 -85 169 -125 268 -120 93 5 179 58 299 184 38 39 76 71 85
71 10 0 36 -21 60 -47 88 -100 116 -126 147 -139 77 -33 158 -11 249 67 76 66
111 91 164 121 56 30 99 31 131 2z m-2757 -24 c68 -25 -12 -178 -121 -231 -41
-20 -66 -23 -178 -25 -151 -3 -189 5 -203 44 -10 30 -6 72 8 86 5 5 56 10 112
11 142 2 260 40 332 107 23 21 18 20 50 8z m-832 -192 c15 -10 33 -27 40 -36
12 -17 146 -126 268 -219 30 -23 67 -53 82 -65 15 -13 42 -34 60 -48 59 -45
191 -162 278 -246 122 -118 117 -114 365 -301 129 -98 232 -193 246 -228 11
-28 15 -152 5 -162 -5 -5 -107 69 -567 410 -8 7 -23 17 -31 22 -156 100 -275
192 -364 280 -81 80 -166 175 -128 143 21 -18 61 -23 80 -10 5 4 17 17 26 30
18 26 13 40 -31 100 -19 25 -32 32 -58 32 -37 0 -53 -21 -49 -62 6 -49 -7 -53
-64 -22 -135 73 -212 197 -224 358 -4 55 -4 57 17 50 12 -4 34 -15 49 -26z
m112 -544 c131 -114 136 -120 129 -182 -5 -46 -2 -56 22 -87 37 -50 71 -71 89
-56 8 7 12 22 10 34 -3 12 -8 37 -10 54 l-6 33 85 -57 c86 -57 127 -106 127
-151 0 -29 20 -70 37 -76 8 -3 27 1 43 9 46 24 72 18 125 -26 28 -23 59 -48
70 -55 19 -14 19 -14 -2 -58 -16 -32 -19 -46 -10 -55 17 -17 46 -13 74 9 33
25 42 25 80 -2 33 -26 49 -37 143 -105 36 -27 67 -51 68 -55 2 -5 8 -8 13 -8
5 0 28 -15 52 -32 24 -18 56 -42 72 -53 52 -35 102 -92 104 -117 0 -12 2 -37
4 -55 2 -17 -1 -41 -5 -53 -12 -34 -50 -22 -191 61 -67 39 -138 80 -157 91
-19 11 -112 72 -207 134 -235 157 -452 324 -617 477 -22 21 -64 53 -91 71 -87
57 -144 129 -162 206 -7 28 -10 135 -5 168 5 38 -7 44 116 -64z"/>
<path d="M4950 4454 c-155 -43 -212 -53 -293 -49 -43 2 -82 7 -86 10 -27 16
-57 -24 -41 -55 9 -17 13 -17 57 -3 49 15 156 20 205 10 91 -18 35 -45 -87
-41 -88 2 -94 1 -123 -24 -17 -15 -33 -37 -37 -49 -7 -24 0 -25 95 -9 14 2 70
11 125 20 55 9 109 18 120 20 27 5 116 21 185 32 38 7 51 19 46 47 -3 25 -25
37 -50 28 -26 -10 -94 -7 -104 4 -4 4 2 12 12 19 32 19 71 54 66 59 -3 2 -43
-6 -90 -19z"/>
<path d="M4814 3710 c-16 -10 -42 -32 -58 -49 -37 -39 -53 -39 -61 -2 -6 27
-9 29 -43 25 -62 -8 -244 -52 -254 -62 -13 -13 1 -40 25 -46 31 -7 84 3 147
28 70 28 99 20 100 -26 0 -12 -8 -18 -24 -18 -14 0 -27 -4 -31 -9 -3 -6 -27
-13 -53 -16 -71 -10 -106 -23 -120 -45 -10 -17 -10 -21 2 -26 37 -14 79 -7
151 25 76 34 127 44 152 28 19 -12 103 -10 136 2 154 59 184 91 139 144 -22
25 -47 21 -89 -16 -21 -18 -51 -38 -66 -45 -30 -13 -127 -17 -127 -4 1 9 117
67 135 67 22 0 29 14 15 30 -26 31 -45 35 -76 15z"/>
<path d="M4710 3433 c-25 -8 -61 -17 -80 -20 -53 -7 -140 -49 -140 -67 0 -13
12 -16 54 -16 68 0 128 25 185 79 48 45 47 46 -19 24z"/>
<path d="M4950 3399 c-19 -5 -102 -35 -185 -67 -143 -56 -150 -60 -153 -88 -2
-25 4 -33 40 -56 46 -31 90 -37 158 -23 8 2 18 4 22 4 16 2 38 34 38 57 0 24
-11 30 -70 36 -14 2 -26 10 -28 20 -3 16 53 41 123 52 68 12 92 19 133 39 23
11 42 24 42 29 0 10 -74 9 -120 -3z"/>
<path d="M5702 2438 c-49 -26 -85 -79 -104 -156 -16 -66 -33 -88 -97 -129 -31
-19 -65 -45 -77 -57 -33 -34 -71 -107 -89 -167 -8 -31 -30 -79 -48 -105 -29
-45 -166 -189 -212 -224 -51 -38 -96 -65 -180 -108 -27 -13 -60 -34 -73 -46
-21 -18 -37 -21 -125 -22 -56 -1 -119 -4 -139 -8 -21 -3 -55 -9 -75 -12 -21
-3 -56 -9 -79 -13 -68 -13 -186 -13 -239 -1 -28 7 -101 13 -162 15 -111 4
-189 24 -207 54 -7 11 -18 10 -99 -11 -46 -11 -164 -127 -196 -190 -26 -53
-22 -143 8 -215 33 -74 60 -97 122 -97 l50 -1 32 -62 c44 -85 101 -147 167
-180 47 -24 69 -28 146 -30 86 -2 97 -5 175 -44 46 -24 100 -52 119 -64 60
-36 130 -58 184 -56 28 1 164 3 301 4 269 3 292 6 399 44 109 39 195 102 266
191 43 54 104 162 93 162 -4 0 -3 4 2 8 6 4 19 25 30 47 11 21 56 75 100 120
71 70 155 175 141 175 -3 0 2 17 11 38 11 26 16 72 17 152 l1 115 47 98 c48
98 77 187 72 220 -1 10 -10 55 -19 100 -10 48 -18 134 -19 207 -1 117 -3 128
-28 172 -51 86 -140 117 -216 76z m110 -152 c22 -26 22 -30 2 -72 -16 -33 -32
-40 -74 -34 -22 3 -30 20 -30 67 0 70 59 93 102 39z m-107 -249 c37 -12 91
-51 110 -81 46 -70 1 -249 -58 -230 -10 3 -38 19 -62 35 -24 16 -45 29 -49 29
-3 0 -29 11 -58 24 -29 14 -66 28 -81 32 -16 3 -33 17 -39 30 -17 36 8 108 49
145 32 28 41 30 97 28 33 -1 75 -7 91 -12z m-152 -335 c130 -90 210 -269 161
-364 -52 -102 -118 -199 -132 -196 -27 5 -67 75 -143 243 -39 88 -87 183 -105
212 -27 39 -33 57 -28 78 7 30 58 71 94 77 37 6 102 -15 153 -50z m-310 -236
c125 -199 213 -413 205 -500 -9 -88 -86 -186 -208 -265 -96 -63 -160 -83 -277
-89 -173 -8 -196 5 -188 110 9 106 21 208 32 252 2 11 7 77 9 145 3 77 10 134
19 151 7 14 42 44 77 65 35 21 95 61 133 89 154 111 154 111 198 42z m-1466
-138 c6 -7 16 -30 24 -51 9 -25 21 -40 36 -43 32 -8 29 -24 -13 -73 -41 -48
-90 -75 -151 -85 -36 -5 -45 -3 -63 16 -17 19 -20 32 -17 70 6 61 39 128 76
153 35 24 94 31 108 13z m403 -53 c17 -11 9 -60 -40 -244 -23 -84 -43 -163
-46 -175 -7 -37 -52 -68 -93 -63 -119 15 -184 56 -197 122 -9 51 1 79 49 127
52 53 96 111 122 161 11 21 27 44 35 52 32 28 136 41 170 20z m487 -12 c14
-21 18 -48 18 -128 0 -106 -5 -148 -39 -365 -14 -86 -18 -98 -48 -123 -41 -34
-110 -37 -199 -7 -66 23 -160 73 -179 95 -27 33 -23 89 20 240 23 83 44 161
46 174 11 55 32 78 89 95 66 21 186 44 237 45 30 1 41 -4 55 -26z"/>
<path d="M4735 2602 c-89 -39 -387 -192 -407 -210 -44 -38 3 -88 55 -60 10 5
33 23 51 40 58 56 204 130 301 153 105 24 144 51 129 90 -9 22 -60 17 -129
-13z"/>
<path d="M4769 2064 c-20 -13 -49 -26 -65 -29 -81 -11 -113 -18 -151 -35 -50
-22 -59 -45 -13 -35 27 6 30 4 30 -18 0 -20 -10 -29 -57 -50 -108 -47 -223
-76 -280 -71 -58 5 -69 -8 -65 -73 2 -20 7 -22 40 -20 20 1 58 15 84 30 25 15
64 29 85 32 88 12 110 18 158 41 28 13 93 55 145 93 52 39 104 77 116 85 13 9
21 26 22 45 1 37 -2 37 -49 5z"/>
</g>
</svg>
